<?xml version="1.0" encoding="utf-8" standalone="no"?>
<!DOCTYPE svg PUBLIC "-//W3C//DTD SVG 1.1//EN"
  "http://www.w3.org/Graphics/SVG/1.1/DTD/svg11.dtd">
<svg xmlns:xlink="http://www.w3.org/1999/xlink" width="460.8pt" height="345.6pt" viewBox="0 0 460.8 345.6" xmlns="http://www.w3.org/2000/svg" version="1.1">
 <metadata>
  <rdf:RDF xmlns:dc="http://purl.org/dc/elements/1.1/" xmlns:cc="http://creativecommons.org/ns#" xmlns:rdf="http://www.w3.org/1999/02/22-rdf-syntax-ns#">
   <cc:Work>
    <dc:type rdf:resource="http://purl.org/dc/dcmitype/StillImage"/>
    <dc:date>2025-09-30T08:03:50.738962</dc:date>
    <dc:format>image/svg+xml</dc:format>
    <dc:creator>
     <cc:Agent>
      <dc:title>Matplotlib v3.10.6, https://matplotlib.org/</dc:title>
     </cc:Agent>
    </dc:creator>
   </cc:Work>
  </rdf:RDF>
 </metadata>
 <defs>
  <style type="text/css">*{stroke-linejoin: round; stroke-linecap: butt}</style>
 </defs>
 <g id="figure_1">
  <g id="patch_1">
   <path d="M 0 345.6 
L 460.8 345.6 
L 460.8 0 
L 0 0 
z
" style="fill: #ffffff"/>
  </g>
  <g id="axes_1">
   <g id="patch_2">
    <path d="M 78.317 217.830753 
L 450 217.830753 
L 450 26.88 
L 78.317 26.88 
z
" style="fill: #ffffff"/>
   </g>
   <g id="matplotlib.axis_1">
    <g id="xtick_1">
     <g id="line2d_1">
      <defs>
       <path id="md3d461990f" d="M 0 0 
L 0 3.5 
" style="stroke: #000000; stroke-width: 0.8"/>
      </defs>
      <g>
       <use xlink:href="#md3d461990f" x="95.211682" y="217.830753" style="stroke: #000000; stroke-width: 0.8"/>
      </g>
     </g>
     <g id="text_1">
      <!-- 2025-09-25T14:16:05 -->
      <g transform="translate(16.570359 307.374422) rotate(-45) scale(0.1 -0.1)">
       <defs>
        <path id="DejaVuSans-32" d="M 1228 531 
L 3431 531 
L 3431 0 
L 469 0 
L 469 531 
Q 828 903 1448 1529 
Q 2069 2156 2228 2338 
Q 2531 2678 2651 2914 
Q 2772 3150 2772 3378 
Q 2772 3750 2511 3984 
Q 2250 4219 1831 4219 
Q 1534 4219 1204 4116 
Q 875 4013 500 3803 
L 500 4441 
Q 881 4594 1212 4672 
Q 1544 4750 1819 4750 
Q 2544 4750 2975 4387 
Q 3406 4025 3406 3419 
Q 3406 3131 3298 2873 
Q 3191 2616 2906 2266 
Q 2828 2175 2409 1742 
Q 1991 1309 1228 531 
z
" transform="scale(0.015625)"/>
        <path id="DejaVuSans-30" d="M 2034 4250 
Q 1547 4250 1301 3770 
Q 1056 3291 1056 2328 
Q 1056 1369 1301 889 
Q 1547 409 2034 409 
Q 2525 409 2770 889 
Q 3016 1369 3016 2328 
Q 3016 3291 2770 3770 
Q 2525 4250 2034 4250 
z
M 2034 4750 
Q 2819 4750 3233 4129 
Q 3647 3509 3647 2328 
Q 3647 1150 3233 529 
Q 2819 -91 2034 -91 
Q 1250 -91 836 529 
Q 422 1150 422 2328 
Q 422 3509 836 4129 
Q 1250 4750 2034 4750 
z
" transform="scale(0.015625)"/>
        <path id="DejaVuSans-35" d="M 691 4666 
L 3169 4666 
L 3169 4134 
L 1269 4134 
L 1269 2991 
Q 1406 3038 1543 3061 
Q 1681 3084 1819 3084 
Q 2600 3084 3056 2656 
Q 3513 2228 3513 1497 
Q 3513 744 3044 326 
Q 2575 -91 1722 -91 
Q 1428 -91 1123 -41 
Q 819 9 494 109 
L 494 744 
Q 775 591 1075 516 
Q 1375 441 1709 441 
Q 2250 441 2565 725 
Q 2881 1009 2881 1497 
Q 2881 1984 2565 2268 
Q 2250 2553 1709 2553 
Q 1456 2553 1204 2497 
Q 953 2441 691 2322 
L 691 4666 
z
" transform="scale(0.015625)"/>
        <path id="DejaVuSans-2d" d="M 313 2009 
L 1997 2009 
L 1997 1497 
L 313 1497 
L 313 2009 
z
" transform="scale(0.015625)"/>
        <path id="DejaVuSans-39" d="M 703 97 
L 703 672 
Q 941 559 1184 500 
Q 1428 441 1663 441 
Q 2288 441 2617 861 
Q 2947 1281 2994 2138 
Q 2813 1869 2534 1725 
Q 2256 1581 1919 1581 
Q 1219 1581 811 2004 
Q 403 2428 403 3163 
Q 403 3881 828 4315 
Q 1253 4750 1959 4750 
Q 2769 4750 3195 4129 
Q 3622 3509 3622 2328 
Q 3622 1225 3098 567 
Q 2575 -91 1691 -91 
Q 1453 -91 1209 -44 
Q 966 3 703 97 
z
M 1959 2075 
Q 2384 2075 2632 2365 
Q 2881 2656 2881 3163 
Q 2881 3666 2632 3958 
Q 2384 4250 1959 4250 
Q 1534 4250 1286 3958 
Q 1038 3666 1038 3163 
Q 1038 2656 1286 2365 
Q 1534 2075 1959 2075 
z
" transform="scale(0.015625)"/>
        <path id="DejaVuSans-54" d="M -19 4666 
L 3928 4666 
L 3928 4134 
L 2272 4134 
L 2272 0 
L 1638 0 
L 1638 4134 
L -19 4134 
L -19 4666 
z
" transform="scale(0.015625)"/>
        <path id="DejaVuSans-31" d="M 794 531 
L 1825 531 
L 1825 4091 
L 703 3866 
L 703 4441 
L 1819 4666 
L 2450 4666 
L 2450 531 
L 3481 531 
L 3481 0 
L 794 0 
L 794 531 
z
" transform="scale(0.015625)"/>
        <path id="DejaVuSans-34" d="M 2419 4116 
L 825 1625 
L 2419 1625 
L 2419 4116 
z
M 2253 4666 
L 3047 4666 
L 3047 1625 
L 3713 1625 
L 3713 1100 
L 3047 1100 
L 3047 0 
L 2419 0 
L 2419 1100 
L 313 1100 
L 313 1709 
L 2253 4666 
z
" transform="scale(0.015625)"/>
        <path id="DejaVuSans-3a" d="M 750 794 
L 1409 794 
L 1409 0 
L 750 0 
L 750 794 
z
M 750 3309 
L 1409 3309 
L 1409 2516 
L 750 2516 
L 750 3309 
z
" transform="scale(0.015625)"/>
        <path id="DejaVuSans-36" d="M 2113 2584 
Q 1688 2584 1439 2293 
Q 1191 2003 1191 1497 
Q 1191 994 1439 701 
Q 1688 409 2113 409 
Q 2538 409 2786 701 
Q 3034 994 3034 1497 
Q 3034 2003 2786 2293 
Q 2538 2584 2113 2584 
z
M 3366 4563 
L 3366 3988 
Q 3128 4100 2886 4159 
Q 2644 4219 2406 4219 
Q 1781 4219 1451 3797 
Q 1122 3375 1075 2522 
Q 1259 2794 1537 2939 
Q 1816 3084 2150 3084 
Q 2853 3084 3261 2657 
Q 3669 2231 3669 1497 
Q 3669 778 3244 343 
Q 2819 -91 2113 -91 
Q 1303 -91 875 529 
Q 447 1150 447 2328 
Q 447 3434 972 4092 
Q 1497 4750 2381 4750 
Q 2619 4750 2861 4703 
Q 3103 4656 3366 4563 
z
" transform="scale(0.015625)"/>
       </defs>
       <use xlink:href="#DejaVuSans-32"/>
       <use xlink:href="#DejaVuSans-30" transform="translate(63.623047 0)"/>
       <use xlink:href="#DejaVuSans-32" transform="translate(127.246094 0)"/>
       <use xlink:href="#DejaVuSans-35" transform="translate(190.869141 0)"/>
       <use xlink:href="#DejaVuSans-2d" transform="translate(254.492188 0)"/>
       <use xlink:href="#DejaVuSans-30" transform="translate(290.576172 0)"/>
       <use xlink:href="#DejaVuSans-39" transform="translate(354.199219 0)"/>
       <use xlink:href="#DejaVuSans-2d" transform="translate(417.822266 0)"/>
       <use xlink:href="#DejaVuSans-32" transform="translate(453.90625 0)"/>
       <use xlink:href="#DejaVuSans-35" transform="translate(517.529297 0)"/>
       <use xlink:href="#DejaVuSans-54" transform="translate(581.152344 0)"/>
       <use xlink:href="#DejaVuSans-31" transform="translate(642.236328 0)"/>
       <use xlink:href="#DejaVuSans-34" transform="translate(705.859375 0)"/>
       <use xlink:href="#DejaVuSans-3a" transform="translate(769.482422 0)"/>
       <use xlink:href="#DejaVuSans-31" transform="translate(803.173828 0)"/>
       <use xlink:href="#DejaVuSans-36" transform="translate(866.796875 0)"/>
       <use xlink:href="#DejaVuSans-3a" transform="translate(930.419922 0)"/>
       <use xlink:href="#DejaVuSans-30" transform="translate(964.111328 0)"/>
       <use xlink:href="#DejaVuSans-35" transform="translate(1027.734375 0)"/>
      </g>
     </g>
    </g>
    <g id="xtick_2">
     <g id="line2d_2">
      <g>
       <use xlink:href="#md3d461990f" x="125.929285" y="217.830753" style="stroke: #000000; stroke-width: 0.8"/>
      </g>
     </g>
     <g id="text_2">
      <!-- 2025-09-26T06:29:50 -->
      <g transform="translate(47.287962 307.374422) rotate(-45) scale(0.1 -0.1)">
       <use xlink:href="#DejaVuSans-32"/>
       <use xlink:href="#DejaVuSans-30" transform="translate(63.623047 0)"/>
       <use xlink:href="#DejaVuSans-32" transform="translate(127.246094 0)"/>
       <use xlink:href="#DejaVuSans-35" transform="translate(190.869141 0)"/>
       <use xlink:href="#DejaVuSans-2d" transform="translate(254.492188 0)"/>
       <use xlink:href="#DejaVuSans-30" transform="translate(290.576172 0)"/>
       <use xlink:href="#DejaVuSans-39" transform="translate(354.199219 0)"/>
       <use xlink:href="#DejaVuSans-2d" transform="translate(417.822266 0)"/>
       <use xlink:href="#DejaVuSans-32" transform="translate(453.90625 0)"/>
       <use xlink:href="#DejaVuSans-36" transform="translate(517.529297 0)"/>
       <use xlink:href="#DejaVuSans-54" transform="translate(581.152344 0)"/>
       <use xlink:href="#DejaVuSans-30" transform="translate(642.236328 0)"/>
       <use xlink:href="#DejaVuSans-36" transform="translate(705.859375 0)"/>
       <use xlink:href="#DejaVuSans-3a" transform="translate(769.482422 0)"/>
       <use xlink:href="#DejaVuSans-32" transform="translate(803.173828 0)"/>
       <use xlink:href="#DejaVuSans-39" transform="translate(866.796875 0)"/>
       <use xlink:href="#DejaVuSans-3a" transform="translate(930.419922 0)"/>
       <use xlink:href="#DejaVuSans-35" transform="translate(964.111328 0)"/>
       <use xlink:href="#DejaVuSans-30" transform="translate(1027.734375 0)"/>
      </g>
     </g>
    </g>
    <g id="xtick_3">
     <g id="line2d_3">
      <g>
       <use xlink:href="#md3d461990f" x="156.646888" y="217.830753" style="stroke: #000000; stroke-width: 0.8"/>
      </g>
     </g>
     <g id="text_3">
      <!-- 2025-09-26T06:58:45 -->
      <g transform="translate(78.005566 307.374422) rotate(-45) scale(0.1 -0.1)">
       <defs>
        <path id="DejaVuSans-38" d="M 2034 2216 
Q 1584 2216 1326 1975 
Q 1069 1734 1069 1313 
Q 1069 891 1326 650 
Q 1584 409 2034 409 
Q 2484 409 2743 651 
Q 3003 894 3003 1313 
Q 3003 1734 2745 1975 
Q 2488 2216 2034 2216 
z
M 1403 2484 
Q 997 2584 770 2862 
Q 544 3141 544 3541 
Q 544 4100 942 4425 
Q 1341 4750 2034 4750 
Q 2731 4750 3128 4425 
Q 3525 4100 3525 3541 
Q 3525 3141 3298 2862 
Q 3072 2584 2669 2484 
Q 3125 2378 3379 2068 
Q 3634 1759 3634 1313 
Q 3634 634 3220 271 
Q 2806 -91 2034 -91 
Q 1263 -91 848 271 
Q 434 634 434 1313 
Q 434 1759 690 2068 
Q 947 2378 1403 2484 
z
M 1172 3481 
Q 1172 3119 1398 2916 
Q 1625 2713 2034 2713 
Q 2441 2713 2670 2916 
Q 2900 3119 2900 3481 
Q 2900 3844 2670 4047 
Q 2441 4250 2034 4250 
Q 1625 4250 1398 4047 
Q 1172 3844 1172 3481 
z
" transform="scale(0.015625)"/>
       </defs>
       <use xlink:href="#DejaVuSans-32"/>
       <use xlink:href="#DejaVuSans-30" transform="translate(63.623047 0)"/>
       <use xlink:href="#DejaVuSans-32" transform="translate(127.246094 0)"/>
       <use xlink:href="#DejaVuSans-35" transform="translate(190.869141 0)"/>
       <use xlink:href="#DejaVuSans-2d" transform="translate(254.492188 0)"/>
       <use xlink:href="#DejaVuSans-30" transform="translate(290.576172 0)"/>
       <use xlink:href="#DejaVuSans-39" transform="translate(354.199219 0)"/>
       <use xlink:href="#DejaVuSans-2d" transform="translate(417.822266 0)"/>
       <use xlink:href="#DejaVuSans-32" transform="translate(453.90625 0)"/>
       <use xlink:href="#DejaVuSans-36" transform="translate(517.529297 0)"/>
       <use xlink:href="#DejaVuSans-54" transform="translate(581.152344 0)"/>
       <use xlink:href="#DejaVuSans-30" transform="translate(642.236328 0)"/>
       <use xlink:href="#DejaVuSans-36" transform="translate(705.859375 0)"/>
       <use xlink:href="#DejaVuSans-3a" transform="translate(769.482422 0)"/>
       <use xlink:href="#DejaVuSans-35" transform="translate(803.173828 0)"/>
       <use xlink:href="#DejaVuSans-38" transform="translate(866.796875 0)"/>
       <use xlink:href="#DejaVuSans-3a" transform="translate(930.419922 0)"/>
       <use xlink:href="#DejaVuSans-34" transform="translate(964.111328 0)"/>
       <use xlink:href="#DejaVuSans-35" transform="translate(1027.734375 0)"/>
      </g>
     </g>
    </g>
    <g id="xtick_4">
     <g id="line2d_4">
      <g>
       <use xlink:href="#md3d461990f" x="187.364492" y="217.830753" style="stroke: #000000; stroke-width: 0.8"/>
      </g>
     </g>
     <g id="text_4">
      <!-- 2025-09-26T08:37:30+00:00 -->
      <g transform="translate(82.419902 333.677689) rotate(-45) scale(0.1 -0.1)">
       <defs>
        <path id="DejaVuSans-33" d="M 2597 2516 
Q 3050 2419 3304 2112 
Q 3559 1806 3559 1356 
Q 3559 666 3084 287 
Q 2609 -91 1734 -91 
Q 1441 -91 1130 -33 
Q 819 25 488 141 
L 488 750 
Q 750 597 1062 519 
Q 1375 441 1716 441 
Q 2309 441 2620 675 
Q 2931 909 2931 1356 
Q 2931 1769 2642 2001 
Q 2353 2234 1838 2234 
L 1294 2234 
L 1294 2753 
L 1863 2753 
Q 2328 2753 2575 2939 
Q 2822 3125 2822 3475 
Q 2822 3834 2567 4026 
Q 2313 4219 1838 4219 
Q 1578 4219 1281 4162 
Q 984 4106 628 3988 
L 628 4550 
Q 988 4650 1302 4700 
Q 1616 4750 1894 4750 
Q 2613 4750 3031 4423 
Q 3450 4097 3450 3541 
Q 3450 3153 3228 2886 
Q 3006 2619 2597 2516 
z
" transform="scale(0.015625)"/>
        <path id="DejaVuSans-37" d="M 525 4666 
L 3525 4666 
L 3525 4397 
L 1831 0 
L 1172 0 
L 2766 4134 
L 525 4134 
L 525 4666 
z
" transform="scale(0.015625)"/>
        <path id="DejaVuSans-2b" d="M 2944 4013 
L 2944 2272 
L 4684 2272 
L 4684 1741 
L 2944 1741 
L 2944 0 
L 2419 0 
L 2419 1741 
L 678 1741 
L 678 2272 
L 2419 2272 
L 2419 4013 
L 2944 4013 
z
" transform="scale(0.015625)"/>
       </defs>
       <use xlink:href="#DejaVuSans-32"/>
       <use xlink:href="#DejaVuSans-30" transform="translate(63.623047 0)"/>
       <use xlink:href="#DejaVuSans-32" transform="translate(127.246094 0)"/>
       <use xlink:href="#DejaVuSans-35" transform="translate(190.869141 0)"/>
       <use xlink:href="#DejaVuSans-2d" transform="translate(254.492188 0)"/>
       <use xlink:href="#DejaVuSans-30" transform="translate(290.576172 0)"/>
       <use xlink:href="#DejaVuSans-39" transform="translate(354.199219 0)"/>
       <use xlink:href="#DejaVuSans-2d" transform="translate(417.822266 0)"/>
       <use xlink:href="#DejaVuSans-32" transform="translate(453.90625 0)"/>
       <use xlink:href="#DejaVuSans-36" transform="translate(517.529297 0)"/>
       <use xlink:href="#DejaVuSans-54" transform="translate(581.152344 0)"/>
       <use xlink:href="#DejaVuSans-30" transform="translate(642.236328 0)"/>
       <use xlink:href="#DejaVuSans-38" transform="translate(705.859375 0)"/>
       <use xlink:href="#DejaVuSans-3a" transform="translate(769.482422 0)"/>
       <use xlink:href="#DejaVuSans-33" transform="translate(803.173828 0)"/>
       <use xlink:href="#DejaVuSans-37" transform="translate(866.796875 0)"/>
       <use xlink:href="#DejaVuSans-3a" transform="translate(930.419922 0)"/>
       <use xlink:href="#DejaVuSans-33" transform="translate(964.111328 0)"/>
       <use xlink:href="#DejaVuSans-30" transform="translate(1027.734375 0)"/>
       <use xlink:href="#DejaVuSans-2b" transform="translate(1091.357422 0)"/>
       <use xlink:href="#DejaVuSans-30" transform="translate(1175.146484 0)"/>
       <use xlink:href="#DejaVuSans-30" transform="translate(1238.769531 0)"/>
       <use xlink:href="#DejaVuSans-3a" transform="translate(1302.392578 0)"/>
       <use xlink:href="#DejaVuSans-30" transform="translate(1336.083984 0)"/>
       <use xlink:href="#DejaVuSans-30" transform="translate(1399.707031 0)"/>
      </g>
     </g>
    </g>
    <g id="xtick_5">
     <g id="line2d_5">
      <g>
       <use xlink:href="#md3d461990f" x="218.082095" y="217.830753" style="stroke: #000000; stroke-width: 0.8"/>
      </g>
     </g>
     <g id="text_5">
      <!-- 2025-09-26T08:53:59+00:00 -->
      <g transform="translate(113.137505 333.677689) rotate(-45) scale(0.1 -0.1)">
       <use xlink:href="#DejaVuSans-32"/>
       <use xlink:href="#DejaVuSans-30" transform="translate(63.623047 0)"/>
       <use xlink:href="#DejaVuSans-32" transform="translate(127.246094 0)"/>
       <use xlink:href="#DejaVuSans-35" transform="translate(190.869141 0)"/>
       <use xlink:href="#DejaVuSans-2d" transform="translate(254.492188 0)"/>
       <use xlink:href="#DejaVuSans-30" transform="translate(290.576172 0)"/>
       <use xlink:href="#DejaVuSans-39" transform="translate(354.199219 0)"/>
       <use xlink:href="#DejaVuSans-2d" transform="translate(417.822266 0)"/>
       <use xlink:href="#DejaVuSans-32" transform="translate(453.90625 0)"/>
       <use xlink:href="#DejaVuSans-36" transform="translate(517.529297 0)"/>
       <use xlink:href="#DejaVuSans-54" transform="translate(581.152344 0)"/>
       <use xlink:href="#DejaVuSans-30" transform="translate(642.236328 0)"/>
       <use xlink:href="#DejaVuSans-38" transform="translate(705.859375 0)"/>
       <use xlink:href="#DejaVuSans-3a" transform="translate(769.482422 0)"/>
       <use xlink:href="#DejaVuSans-35" transform="translate(803.173828 0)"/>
       <use xlink:href="#DejaVuSans-33" transform="translate(866.796875 0)"/>
       <use xlink:href="#DejaVuSans-3a" transform="translate(930.419922 0)"/>
       <use xlink:href="#DejaVuSans-35" transform="translate(964.111328 0)"/>
       <use xlink:href="#DejaVuSans-39" transform="translate(1027.734375 0)"/>
       <use xlink:href="#DejaVuSans-2b" transform="translate(1091.357422 0)"/>
       <use xlink:href="#DejaVuSans-30" transform="translate(1175.146484 0)"/>
       <use xlink:href="#DejaVuSans-30" transform="translate(1238.769531 0)"/>
       <use xlink:href="#DejaVuSans-3a" transform="translate(1302.392578 0)"/>
       <use xlink:href="#DejaVuSans-30" transform="translate(1336.083984 0)"/>
       <use xlink:href="#DejaVuSans-30" transform="translate(1399.707031 0)"/>
      </g>
     </g>
    </g>
    <g id="xtick_6">
     <g id="line2d_6">
      <g>
       <use xlink:href="#md3d461990f" x="248.799698" y="217.830753" style="stroke: #000000; stroke-width: 0.8"/>
      </g>
     </g>
     <g id="text_6">
      <!-- 2025-09-26T09:33:58+00:00 -->
      <g transform="translate(143.855108 333.677689) rotate(-45) scale(0.1 -0.1)">
       <use xlink:href="#DejaVuSans-32"/>
       <use xlink:href="#DejaVuSans-30" transform="translate(63.623047 0)"/>
       <use xlink:href="#DejaVuSans-32" transform="translate(127.246094 0)"/>
       <use xlink:href="#DejaVuSans-35" transform="translate(190.869141 0)"/>
       <use xlink:href="#DejaVuSans-2d" transform="translate(254.492188 0)"/>
       <use xlink:href="#DejaVuSans-30" transform="translate(290.576172 0)"/>
       <use xlink:href="#DejaVuSans-39" transform="translate(354.199219 0)"/>
       <use xlink:href="#DejaVuSans-2d" transform="translate(417.822266 0)"/>
       <use xlink:href="#DejaVuSans-32" transform="translate(453.90625 0)"/>
       <use xlink:href="#DejaVuSans-36" transform="translate(517.529297 0)"/>
       <use xlink:href="#DejaVuSans-54" transform="translate(581.152344 0)"/>
       <use xlink:href="#DejaVuSans-30" transform="translate(642.236328 0)"/>
       <use xlink:href="#DejaVuSans-39" transform="translate(705.859375 0)"/>
       <use xlink:href="#DejaVuSans-3a" transform="translate(769.482422 0)"/>
       <use xlink:href="#DejaVuSans-33" transform="translate(803.173828 0)"/>
       <use xlink:href="#DejaVuSans-33" transform="translate(866.796875 0)"/>
       <use xlink:href="#DejaVuSans-3a" transform="translate(930.419922 0)"/>
       <use xlink:href="#DejaVuSans-35" transform="translate(964.111328 0)"/>
       <use xlink:href="#DejaVuSans-38" transform="translate(1027.734375 0)"/>
       <use xlink:href="#DejaVuSans-2b" transform="translate(1091.357422 0)"/>
       <use xlink:href="#DejaVuSans-30" transform="translate(1175.146484 0)"/>
       <use xlink:href="#DejaVuSans-30" transform="translate(1238.769531 0)"/>
       <use xlink:href="#DejaVuSans-3a" transform="translate(1302.392578 0)"/>
       <use xlink:href="#DejaVuSans-30" transform="translate(1336.083984 0)"/>
       <use xlink:href="#DejaVuSans-30" transform="translate(1399.707031 0)"/>
      </g>
     </g>
    </g>
    <g id="xtick_7">
     <g id="line2d_7">
      <g>
       <use xlink:href="#md3d461990f" x="279.517302" y="217.830753" style="stroke: #000000; stroke-width: 0.8"/>
      </g>
     </g>
     <g id="text_7">
      <!-- 2025-09-26T09:49:01+00:00 -->
      <g transform="translate(174.572712 333.677689) rotate(-45) scale(0.1 -0.1)">
       <use xlink:href="#DejaVuSans-32"/>
       <use xlink:href="#DejaVuSans-30" transform="translate(63.623047 0)"/>
       <use xlink:href="#DejaVuSans-32" transform="translate(127.246094 0)"/>
       <use xlink:href="#DejaVuSans-35" transform="translate(190.869141 0)"/>
       <use xlink:href="#DejaVuSans-2d" transform="translate(254.492188 0)"/>
       <use xlink:href="#DejaVuSans-30" transform="translate(290.576172 0)"/>
       <use xlink:href="#DejaVuSans-39" transform="translate(354.199219 0)"/>
       <use xlink:href="#DejaVuSans-2d" transform="translate(417.822266 0)"/>
       <use xlink:href="#DejaVuSans-32" transform="translate(453.90625 0)"/>
       <use xlink:href="#DejaVuSans-36" transform="translate(517.529297 0)"/>
       <use xlink:href="#DejaVuSans-54" transform="translate(581.152344 0)"/>
       <use xlink:href="#DejaVuSans-30" transform="translate(642.236328 0)"/>
       <use xlink:href="#DejaVuSans-39" transform="translate(705.859375 0)"/>
       <use xlink:href="#DejaVuSans-3a" transform="translate(769.482422 0)"/>
       <use xlink:href="#DejaVuSans-34" transform="translate(803.173828 0)"/>
       <use xlink:href="#DejaVuSans-39" transform="translate(866.796875 0)"/>
       <use xlink:href="#DejaVuSans-3a" transform="translate(930.419922 0)"/>
       <use xlink:href="#DejaVuSans-30" transform="translate(964.111328 0)"/>
       <use xlink:href="#DejaVuSans-31" transform="translate(1027.734375 0)"/>
       <use xlink:href="#DejaVuSans-2b" transform="translate(1091.357422 0)"/>
       <use xlink:href="#DejaVuSans-30" transform="translate(1175.146484 0)"/>
       <use xlink:href="#DejaVuSans-30" transform="translate(1238.769531 0)"/>
       <use xlink:href="#DejaVuSans-3a" transform="translate(1302.392578 0)"/>
       <use xlink:href="#DejaVuSans-30" transform="translate(1336.083984 0)"/>
       <use xlink:href="#DejaVuSans-30" transform="translate(1399.707031 0)"/>
      </g>
     </g>
    </g>
    <g id="xtick_8">
     <g id="line2d_8">
      <g>
       <use xlink:href="#md3d461990f" x="310.234905" y="217.830753" style="stroke: #000000; stroke-width: 0.8"/>
      </g>
     </g>
     <g id="text_8">
      <!-- 2025-09-26T10:45:41+00:00 -->
      <g transform="translate(205.290315 333.677689) rotate(-45) scale(0.1 -0.1)">
       <use xlink:href="#DejaVuSans-32"/>
       <use xlink:href="#DejaVuSans-30" transform="translate(63.623047 0)"/>
       <use xlink:href="#DejaVuSans-32" transform="translate(127.246094 0)"/>
       <use xlink:href="#DejaVuSans-35" transform="translate(190.869141 0)"/>
       <use xlink:href="#DejaVuSans-2d" transform="translate(254.492188 0)"/>
       <use xlink:href="#DejaVuSans-30" transform="translate(290.576172 0)"/>
       <use xlink:href="#DejaVuSans-39" transform="translate(354.199219 0)"/>
       <use xlink:href="#DejaVuSans-2d" transform="translate(417.822266 0)"/>
       <use xlink:href="#DejaVuSans-32" transform="translate(453.90625 0)"/>
       <use xlink:href="#DejaVuSans-36" transform="translate(517.529297 0)"/>
       <use xlink:href="#DejaVuSans-54" transform="translate(581.152344 0)"/>
       <use xlink:href="#DejaVuSans-31" transform="translate(642.236328 0)"/>
       <use xlink:href="#DejaVuSans-30" transform="translate(705.859375 0)"/>
       <use xlink:href="#DejaVuSans-3a" transform="translate(769.482422 0)"/>
       <use xlink:href="#DejaVuSans-34" transform="translate(803.173828 0)"/>
       <use xlink:href="#DejaVuSans-35" transform="translate(866.796875 0)"/>
       <use xlink:href="#DejaVuSans-3a" transform="translate(930.419922 0)"/>
       <use xlink:href="#DejaVuSans-34" transform="translate(964.111328 0)"/>
       <use xlink:href="#DejaVuSans-31" transform="translate(1027.734375 0)"/>
       <use xlink:href="#DejaVuSans-2b" transform="translate(1091.357422 0)"/>
       <use xlink:href="#DejaVuSans-30" transform="translate(1175.146484 0)"/>
       <use xlink:href="#DejaVuSans-30" transform="translate(1238.769531 0)"/>
       <use xlink:href="#DejaVuSans-3a" transform="translate(1302.392578 0)"/>
       <use xlink:href="#DejaVuSans-30" transform="translate(1336.083984 0)"/>
       <use xlink:href="#DejaVuSans-30" transform="translate(1399.707031 0)"/>
      </g>
     </g>
    </g>
    <g id="xtick_9">
     <g id="line2d_9">
      <g>
       <use xlink:href="#md3d461990f" x="340.952508" y="217.830753" style="stroke: #000000; stroke-width: 0.8"/>
      </g>
     </g>
     <g id="text_9">
      <!-- 2025-09-26T11:12:09+00:00 -->
      <g transform="translate(236.007918 333.677689) rotate(-45) scale(0.1 -0.1)">
       <use xlink:href="#DejaVuSans-32"/>
       <use xlink:href="#DejaVuSans-30" transform="translate(63.623047 0)"/>
       <use xlink:href="#DejaVuSans-32" transform="translate(127.246094 0)"/>
       <use xlink:href="#DejaVuSans-35" transform="translate(190.869141 0)"/>
       <use xlink:href="#DejaVuSans-2d" transform="translate(254.492188 0)"/>
       <use xlink:href="#DejaVuSans-30" transform="translate(290.576172 0)"/>
       <use xlink:href="#DejaVuSans-39" transform="translate(354.199219 0)"/>
       <use xlink:href="#DejaVuSans-2d" transform="translate(417.822266 0)"/>
       <use xlink:href="#DejaVuSans-32" transform="translate(453.90625 0)"/>
       <use xlink:href="#DejaVuSans-36" transform="translate(517.529297 0)"/>
       <use xlink:href="#DejaVuSans-54" transform="translate(581.152344 0)"/>
       <use xlink:href="#DejaVuSans-31" transform="translate(642.236328 0)"/>
       <use xlink:href="#DejaVuSans-31" transform="translate(705.859375 0)"/>
       <use xlink:href="#DejaVuSans-3a" transform="translate(769.482422 0)"/>
       <use xlink:href="#DejaVuSans-31" transform="translate(803.173828 0)"/>
       <use xlink:href="#DejaVuSans-32" transform="translate(866.796875 0)"/>
       <use xlink:href="#DejaVuSans-3a" transform="translate(930.419922 0)"/>
       <use xlink:href="#DejaVuSans-30" transform="translate(964.111328 0)"/>
       <use xlink:href="#DejaVuSans-39" transform="translate(1027.734375 0)"/>
       <use xlink:href="#DejaVuSans-2b" transform="translate(1091.357422 0)"/>
       <use xlink:href="#DejaVuSans-30" transform="translate(1175.146484 0)"/>
       <use xlink:href="#DejaVuSans-30" transform="translate(1238.769531 0)"/>
       <use xlink:href="#DejaVuSans-3a" transform="translate(1302.392578 0)"/>
       <use xlink:href="#DejaVuSans-30" transform="translate(1336.083984 0)"/>
       <use xlink:href="#DejaVuSans-30" transform="translate(1399.707031 0)"/>
      </g>
     </g>
    </g>
    <g id="xtick_10">
     <g id="line2d_10">
      <g>
       <use xlink:href="#md3d461990f" x="371.670112" y="217.830753" style="stroke: #000000; stroke-width: 0.8"/>
      </g>
     </g>
     <g id="text_10">
      <!-- 2025-09-26T11:24:41+00:00 -->
      <g transform="translate(266.725522 333.677689) rotate(-45) scale(0.1 -0.1)">
       <use xlink:href="#DejaVuSans-32"/>
       <use xlink:href="#DejaVuSans-30" transform="translate(63.623047 0)"/>
       <use xlink:href="#DejaVuSans-32" transform="translate(127.246094 0)"/>
       <use xlink:href="#DejaVuSans-35" transform="translate(190.869141 0)"/>
       <use xlink:href="#DejaVuSans-2d" transform="translate(254.492188 0)"/>
       <use xlink:href="#DejaVuSans-30" transform="translate(290.576172 0)"/>
       <use xlink:href="#DejaVuSans-39" transform="translate(354.199219 0)"/>
       <use xlink:href="#DejaVuSans-2d" transform="translate(417.822266 0)"/>
       <use xlink:href="#DejaVuSans-32" transform="translate(453.90625 0)"/>
       <use xlink:href="#DejaVuSans-36" transform="translate(517.529297 0)"/>
       <use xlink:href="#DejaVuSans-54" transform="translate(581.152344 0)"/>
       <use xlink:href="#DejaVuSans-31" transform="translate(642.236328 0)"/>
       <use xlink:href="#DejaVuSans-31" transform="translate(705.859375 0)"/>
       <use xlink:href="#DejaVuSans-3a" transform="translate(769.482422 0)"/>
       <use xlink:href="#DejaVuSans-32" transform="translate(803.173828 0)"/>
       <use xlink:href="#DejaVuSans-34" transform="translate(866.796875 0)"/>
       <use xlink:href="#DejaVuSans-3a" transform="translate(930.419922 0)"/>
       <use xlink:href="#DejaVuSans-34" transform="translate(964.111328 0)"/>
       <use xlink:href="#DejaVuSans-31" transform="translate(1027.734375 0)"/>
       <use xlink:href="#DejaVuSans-2b" transform="translate(1091.357422 0)"/>
       <use xlink:href="#DejaVuSans-30" transform="translate(1175.146484 0)"/>
       <use xlink:href="#DejaVuSans-30" transform="translate(1238.769531 0)"/>
       <use xlink:href="#DejaVuSans-3a" transform="translate(1302.392578 0)"/>
       <use xlink:href="#DejaVuSans-30" transform="translate(1336.083984 0)"/>
       <use xlink:href="#DejaVuSans-30" transform="translate(1399.707031 0)"/>
      </g>
     </g>
    </g>
    <g id="xtick_11">
     <g id="line2d_11">
      <g>
       <use xlink:href="#md3d461990f" x="402.387715" y="217.830753" style="stroke: #000000; stroke-width: 0.8"/>
      </g>
     </g>
     <g id="text_11">
      <!-- 2025-09-29T05:36:09+00:00 -->
      <g transform="translate(297.443125 333.677689) rotate(-45) scale(0.1 -0.1)">
       <use xlink:href="#DejaVuSans-32"/>
       <use xlink:href="#DejaVuSans-30" transform="translate(63.623047 0)"/>
       <use xlink:href="#DejaVuSans-32" transform="translate(127.246094 0)"/>
       <use xlink:href="#DejaVuSans-35" transform="translate(190.869141 0)"/>
       <use xlink:href="#DejaVuSans-2d" transform="translate(254.492188 0)"/>
       <use xlink:href="#DejaVuSans-30" transform="translate(290.576172 0)"/>
       <use xlink:href="#DejaVuSans-39" transform="translate(354.199219 0)"/>
       <use xlink:href="#DejaVuSans-2d" transform="translate(417.822266 0)"/>
       <use xlink:href="#DejaVuSans-32" transform="translate(453.90625 0)"/>
       <use xlink:href="#DejaVuSans-39" transform="translate(517.529297 0)"/>
       <use xlink:href="#DejaVuSans-54" transform="translate(581.152344 0)"/>
       <use xlink:href="#DejaVuSans-30" transform="translate(642.236328 0)"/>
       <use xlink:href="#DejaVuSans-35" transform="translate(705.859375 0)"/>
       <use xlink:href="#DejaVuSans-3a" transform="translate(769.482422 0)"/>
       <use xlink:href="#DejaVuSans-33" transform="translate(803.173828 0)"/>
       <use xlink:href="#DejaVuSans-36" transform="translate(866.796875 0)"/>
       <use xlink:href="#DejaVuSans-3a" transform="translate(930.419922 0)"/>
       <use xlink:href="#DejaVuSans-30" transform="translate(964.111328 0)"/>
       <use xlink:href="#DejaVuSans-39" transform="translate(1027.734375 0)"/>
       <use xlink:href="#DejaVuSans-2b" transform="translate(1091.357422 0)"/>
       <use xlink:href="#DejaVuSans-30" transform="translate(1175.146484 0)"/>
       <use xlink:href="#DejaVuSans-30" transform="translate(1238.769531 0)"/>
       <use xlink:href="#DejaVuSans-3a" transform="translate(1302.392578 0)"/>
       <use xlink:href="#DejaVuSans-30" transform="translate(1336.083984 0)"/>
       <use xlink:href="#DejaVuSans-30" transform="translate(1399.707031 0)"/>
      </g>
     </g>
    </g>
    <g id="xtick_12">
     <g id="line2d_12">
      <g>
       <use xlink:href="#md3d461990f" x="433.105318" y="217.830753" style="stroke: #000000; stroke-width: 0.8"/>
      </g>
     </g>
     <g id="text_12">
      <!-- 2025-09-30T08:03:47+00:00 -->
      <g transform="translate(328.160728 333.677689) rotate(-45) scale(0.1 -0.1)">
       <use xlink:href="#DejaVuSans-32"/>
       <use xlink:href="#DejaVuSans-30" transform="translate(63.623047 0)"/>
       <use xlink:href="#DejaVuSans-32" transform="translate(127.246094 0)"/>
       <use xlink:href="#DejaVuSans-35" transform="translate(190.869141 0)"/>
       <use xlink:href="#DejaVuSans-2d" transform="translate(254.492188 0)"/>
       <use xlink:href="#DejaVuSans-30" transform="translate(290.576172 0)"/>
       <use xlink:href="#DejaVuSans-39" transform="translate(354.199219 0)"/>
       <use xlink:href="#DejaVuSans-2d" transform="translate(417.822266 0)"/>
       <use xlink:href="#DejaVuSans-33" transform="translate(453.90625 0)"/>
       <use xlink:href="#DejaVuSans-30" transform="translate(517.529297 0)"/>
       <use xlink:href="#DejaVuSans-54" transform="translate(581.152344 0)"/>
       <use xlink:href="#DejaVuSans-30" transform="translate(642.236328 0)"/>
       <use xlink:href="#DejaVuSans-38" transform="translate(705.859375 0)"/>
       <use xlink:href="#DejaVuSans-3a" transform="translate(769.482422 0)"/>
       <use xlink:href="#DejaVuSans-30" transform="translate(803.173828 0)"/>
       <use xlink:href="#DejaVuSans-33" transform="translate(866.796875 0)"/>
       <use xlink:href="#DejaVuSans-3a" transform="translate(930.419922 0)"/>
       <use xlink:href="#DejaVuSans-34" transform="translate(964.111328 0)"/>
       <use xlink:href="#DejaVuSans-37" transform="translate(1027.734375 0)"/>
       <use xlink:href="#DejaVuSans-2b" transform="translate(1091.357422 0)"/>
       <use xlink:href="#DejaVuSans-30" transform="translate(1175.146484 0)"/>
       <use xlink:href="#DejaVuSans-30" transform="translate(1238.769531 0)"/>
       <use xlink:href="#DejaVuSans-3a" transform="translate(1302.392578 0)"/>
       <use xlink:href="#DejaVuSans-30" transform="translate(1336.083984 0)"/>
       <use xlink:href="#DejaVuSans-30" transform="translate(1399.707031 0)"/>
      </g>
     </g>
    </g>
   </g>
   <g id="matplotlib.axis_2">
    <g id="ytick_1">
     <g id="line2d_13">
      <path d="M 78.317 217.830753 
L 450 217.830753 
" clip-path="url(#p19bf08556c)" style="fill: none; stroke-dasharray: 0.8,1.32; stroke-dashoffset: 0; stroke: #b0b0b0; stroke-opacity: 0.5; stroke-width: 0.8"/>
     </g>
     <g id="line2d_14">
      <defs>
       <path id="mb01cf9e813" d="M 0 0 
L -3.5 0 
" style="stroke: #000000; stroke-width: 0.8"/>
      </defs>
      <g>
       <use xlink:href="#mb01cf9e813" x="78.317" y="217.830753" style="stroke: #000000; stroke-width: 0.8"/>
      </g>
     </g>
     <g id="text_13">
      <!-- 0 -->
      <g transform="translate(64.9545 221.629972) scale(0.1 -0.1)">
       <use xlink:href="#DejaVuSans-30"/>
      </g>
     </g>
    </g>
    <g id="ytick_2">
     <g id="line2d_15">
      <path d="M 78.317 185.623 
L 450 185.623 
" clip-path="url(#p19bf08556c)" style="fill: none; stroke-dasharray: 0.8,1.32; stroke-dashoffset: 0; stroke: #b0b0b0; stroke-opacity: 0.5; stroke-width: 0.8"/>
     </g>
     <g id="line2d_16">
      <g>
       <use xlink:href="#mb01cf9e813" x="78.317" y="185.623" style="stroke: #000000; stroke-width: 0.8"/>
      </g>
     </g>
     <g id="text_14">
      <!-- 10000 -->
      <g transform="translate(39.5045 189.422218) scale(0.1 -0.1)">
       <use xlink:href="#DejaVuSans-31"/>
       <use xlink:href="#DejaVuSans-30" transform="translate(63.623047 0)"/>
       <use xlink:href="#DejaVuSans-30" transform="translate(127.246094 0)"/>
       <use xlink:href="#DejaVuSans-30" transform="translate(190.869141 0)"/>
       <use xlink:href="#DejaVuSans-30" transform="translate(254.492188 0)"/>
      </g>
     </g>
    </g>
    <g id="ytick_3">
     <g id="line2d_17">
      <path d="M 78.317 153.415246 
L 450 153.415246 
" clip-path="url(#p19bf08556c)" style="fill: none; stroke-dasharray: 0.8,1.32; stroke-dashoffset: 0; stroke: #b0b0b0; stroke-opacity: 0.5; stroke-width: 0.8"/>
     </g>
     <g id="line2d_18">
      <g>
       <use xlink:href="#mb01cf9e813" x="78.317" y="153.415246" style="stroke: #000000; stroke-width: 0.8"/>
      </g>
     </g>
     <g id="text_15">
      <!-- 20000 -->
      <g transform="translate(39.5045 157.214465) scale(0.1 -0.1)">
       <use xlink:href="#DejaVuSans-32"/>
       <use xlink:href="#DejaVuSans-30" transform="translate(63.623047 0)"/>
       <use xlink:href="#DejaVuSans-30" transform="translate(127.246094 0)"/>
       <use xlink:href="#DejaVuSans-30" transform="translate(190.869141 0)"/>
       <use xlink:href="#DejaVuSans-30" transform="translate(254.492188 0)"/>
      </g>
     </g>
    </g>
    <g id="ytick_4">
     <g id="line2d_19">
      <path d="M 78.317 121.207492 
L 450 121.207492 
" clip-path="url(#p19bf08556c)" style="fill: none; stroke-dasharray: 0.8,1.32; stroke-dashoffset: 0; stroke: #b0b0b0; stroke-opacity: 0.5; stroke-width: 0.8"/>
     </g>
     <g id="line2d_20">
      <g>
       <use xlink:href="#mb01cf9e813" x="78.317" y="121.207492" style="stroke: #000000; stroke-width: 0.8"/>
      </g>
     </g>
     <g id="text_16">
      <!-- 30000 -->
      <g transform="translate(39.5045 125.006711) scale(0.1 -0.1)">
       <use xlink:href="#DejaVuSans-33"/>
       <use xlink:href="#DejaVuSans-30" transform="translate(63.623047 0)"/>
       <use xlink:href="#DejaVuSans-30" transform="translate(127.246094 0)"/>
       <use xlink:href="#DejaVuSans-30" transform="translate(190.869141 0)"/>
       <use xlink:href="#DejaVuSans-30" transform="translate(254.492188 0)"/>
      </g>
     </g>
    </g>
    <g id="ytick_5">
     <g id="line2d_21">
      <path d="M 78.317 88.999739 
L 450 88.999739 
" clip-path="url(#p19bf08556c)" style="fill: none; stroke-dasharray: 0.8,1.32; stroke-dashoffset: 0; stroke: #b0b0b0; stroke-opacity: 0.5; stroke-width: 0.8"/>
     </g>
     <g id="line2d_22">
      <g>
       <use xlink:href="#mb01cf9e813" x="78.317" y="88.999739" style="stroke: #000000; stroke-width: 0.8"/>
      </g>
     </g>
     <g id="text_17">
      <!-- 40000 -->
      <g transform="translate(39.5045 92.798957) scale(0.1 -0.1)">
       <use xlink:href="#DejaVuSans-34"/>
       <use xlink:href="#DejaVuSans-30" transform="translate(63.623047 0)"/>
       <use xlink:href="#DejaVuSans-30" transform="translate(127.246094 0)"/>
       <use xlink:href="#DejaVuSans-30" transform="translate(190.869141 0)"/>
       <use xlink:href="#DejaVuSans-30" transform="translate(254.492188 0)"/>
      </g>
     </g>
    </g>
    <g id="ytick_6">
     <g id="line2d_23">
      <path d="M 78.317 56.791985 
L 450 56.791985 
" clip-path="url(#p19bf08556c)" style="fill: none; stroke-dasharray: 0.8,1.32; stroke-dashoffset: 0; stroke: #b0b0b0; stroke-opacity: 0.5; stroke-width: 0.8"/>
     </g>
     <g id="line2d_24">
      <g>
       <use xlink:href="#mb01cf9e813" x="78.317" y="56.791985" style="stroke: #000000; stroke-width: 0.8"/>
      </g>
     </g>
     <g id="text_18">
      <!-- 50000 -->
      <g transform="translate(39.5045 60.591204) scale(0.1 -0.1)">
       <use xlink:href="#DejaVuSans-35"/>
       <use xlink:href="#DejaVuSans-30" transform="translate(63.623047 0)"/>
       <use xlink:href="#DejaVuSans-30" transform="translate(127.246094 0)"/>
       <use xlink:href="#DejaVuSans-30" transform="translate(190.869141 0)"/>
       <use xlink:href="#DejaVuSans-30" transform="translate(254.492188 0)"/>
      </g>
     </g>
    </g>
    <g id="text_19">
     <!-- Bytes -->
     <g transform="translate(33.424812 136.386627) rotate(-90) scale(0.1 -0.1)">
      <defs>
       <path id="DejaVuSans-42" d="M 1259 2228 
L 1259 519 
L 2272 519 
Q 2781 519 3026 730 
Q 3272 941 3272 1375 
Q 3272 1813 3026 2020 
Q 2781 2228 2272 2228 
L 1259 2228 
z
M 1259 4147 
L 1259 2741 
L 2194 2741 
Q 2656 2741 2882 2914 
Q 3109 3088 3109 3444 
Q 3109 3797 2882 3972 
Q 2656 4147 2194 4147 
L 1259 4147 
z
M 628 4666 
L 2241 4666 
Q 2963 4666 3353 4366 
Q 3744 4066 3744 3513 
Q 3744 3084 3544 2831 
Q 3344 2578 2956 2516 
Q 3422 2416 3680 2098 
Q 3938 1781 3938 1306 
Q 3938 681 3513 340 
Q 3088 0 2303 0 
L 628 0 
L 628 4666 
z
" transform="scale(0.015625)"/>
       <path id="DejaVuSans-79" d="M 2059 -325 
Q 1816 -950 1584 -1140 
Q 1353 -1331 966 -1331 
L 506 -1331 
L 506 -850 
L 844 -850 
Q 1081 -850 1212 -737 
Q 1344 -625 1503 -206 
L 1606 56 
L 191 3500 
L 800 3500 
L 1894 763 
L 2988 3500 
L 3597 3500 
L 2059 -325 
z
" transform="scale(0.015625)"/>
       <path id="DejaVuSans-74" d="M 1172 4494 
L 1172 3500 
L 2356 3500 
L 2356 3053 
L 1172 3053 
L 1172 1153 
Q 1172 725 1289 603 
Q 1406 481 1766 481 
L 2356 481 
L 2356 0 
L 1766 0 
Q 1100 0 847 248 
Q 594 497 594 1153 
L 594 3053 
L 172 3053 
L 172 3500 
L 594 3500 
L 594 4494 
L 1172 4494 
z
" transform="scale(0.015625)"/>
       <path id="DejaVuSans-65" d="M 3597 1894 
L 3597 1613 
L 953 1613 
Q 991 1019 1311 708 
Q 1631 397 2203 397 
Q 2534 397 2845 478 
Q 3156 559 3463 722 
L 3463 178 
Q 3153 47 2828 -22 
Q 2503 -91 2169 -91 
Q 1331 -91 842 396 
Q 353 884 353 1716 
Q 353 2575 817 3079 
Q 1281 3584 2069 3584 
Q 2775 3584 3186 3129 
Q 3597 2675 3597 1894 
z
M 3022 2063 
Q 3016 2534 2758 2815 
Q 2500 3097 2075 3097 
Q 1594 3097 1305 2825 
Q 1016 2553 972 2059 
L 3022 2063 
z
" transform="scale(0.015625)"/>
       <path id="DejaVuSans-73" d="M 2834 3397 
L 2834 2853 
Q 2591 2978 2328 3040 
Q 2066 3103 1784 3103 
Q 1356 3103 1142 2972 
Q 928 2841 928 2578 
Q 928 2378 1081 2264 
Q 1234 2150 1697 2047 
L 1894 2003 
Q 2506 1872 2764 1633 
Q 3022 1394 3022 966 
Q 3022 478 2636 193 
Q 2250 -91 1575 -91 
Q 1294 -91 989 -36 
Q 684 19 347 128 
L 347 722 
Q 666 556 975 473 
Q 1284 391 1588 391 
Q 1994 391 2212 530 
Q 2431 669 2431 922 
Q 2431 1156 2273 1281 
Q 2116 1406 1581 1522 
L 1381 1569 
Q 847 1681 609 1914 
Q 372 2147 372 2553 
Q 372 3047 722 3315 
Q 1072 3584 1716 3584 
Q 2034 3584 2315 3537 
Q 2597 3491 2834 3397 
z
" transform="scale(0.015625)"/>
      </defs>
      <use xlink:href="#DejaVuSans-42"/>
      <use xlink:href="#DejaVuSans-79" transform="translate(68.603516 0)"/>
      <use xlink:href="#DejaVuSans-74" transform="translate(127.783203 0)"/>
      <use xlink:href="#DejaVuSans-65" transform="translate(166.992188 0)"/>
      <use xlink:href="#DejaVuSans-73" transform="translate(228.515625 0)"/>
     </g>
    </g>
   </g>
   <g id="line2d_25">
    <path d="M 95.211682 35.972893 
L 110.570483 35.972893 
L 125.929285 35.972893 
L 141.288087 35.972893 
L 156.646888 35.972893 
L 172.00569 35.972893 
L 187.364492 35.972893 
L 202.723293 35.972893 
L 218.082095 35.972893 
L 233.440897 35.972893 
L 248.799698 35.972893 
L 264.1585 35.972893 
L 279.517302 35.972893 
L 294.876103 35.972893 
L 310.234905 35.972893 
L 325.593707 35.972893 
L 340.952508 35.972893 
L 356.31131 35.972893 
L 371.670112 35.972893 
L 387.028913 35.972893 
L 402.387715 35.972893 
L 417.746517 35.972893 
L 433.105318 35.972893 
" clip-path="url(#p19bf08556c)" style="fill: none; stroke: #1f77b4; stroke-width: 1.5; stroke-linecap: square"/>
    <defs>
     <path id="m5aa34d633d" d="M 0 3 
C 0.795609 3 1.55874 2.683901 2.12132 2.12132 
C 2.683901 1.55874 3 0.795609 3 0 
C 3 -0.795609 2.683901 -1.55874 2.12132 -2.12132 
C 1.55874 -2.683901 0.795609 -3 0 -3 
C -0.795609 -3 -1.55874 -2.683901 -2.12132 -2.12132 
C -2.683901 -1.55874 -3 -0.795609 -3 0 
C -3 0.795609 -2.683901 1.55874 -2.12132 2.12132 
C -1.55874 2.683901 -0.795609 3 0 3 
z
" style="stroke: #1f77b4"/>
    </defs>
    <g clip-path="url(#p19bf08556c)">
     <use xlink:href="#m5aa34d633d" x="95.211682" y="35.972893" style="fill: #1f77b4; stroke: #1f77b4"/>
     <use xlink:href="#m5aa34d633d" x="110.570483" y="35.972893" style="fill: #1f77b4; stroke: #1f77b4"/>
     <use xlink:href="#m5aa34d633d" x="125.929285" y="35.972893" style="fill: #1f77b4; stroke: #1f77b4"/>
     <use xlink:href="#m5aa34d633d" x="141.288087" y="35.972893" style="fill: #1f77b4; stroke: #1f77b4"/>
     <use xlink:href="#m5aa34d633d" x="156.646888" y="35.972893" style="fill: #1f77b4; stroke: #1f77b4"/>
     <use xlink:href="#m5aa34d633d" x="172.00569" y="35.972893" style="fill: #1f77b4; stroke: #1f77b4"/>
     <use xlink:href="#m5aa34d633d" x="187.364492" y="35.972893" style="fill: #1f77b4; stroke: #1f77b4"/>
     <use xlink:href="#m5aa34d633d" x="202.723293" y="35.972893" style="fill: #1f77b4; stroke: #1f77b4"/>
     <use xlink:href="#m5aa34d633d" x="218.082095" y="35.972893" style="fill: #1f77b4; stroke: #1f77b4"/>
     <use xlink:href="#m5aa34d633d" x="233.440897" y="35.972893" style="fill: #1f77b4; stroke: #1f77b4"/>
     <use xlink:href="#m5aa34d633d" x="248.799698" y="35.972893" style="fill: #1f77b4; stroke: #1f77b4"/>
     <use xlink:href="#m5aa34d633d" x="264.1585" y="35.972893" style="fill: #1f77b4; stroke: #1f77b4"/>
     <use xlink:href="#m5aa34d633d" x="279.517302" y="35.972893" style="fill: #1f77b4; stroke: #1f77b4"/>
     <use xlink:href="#m5aa34d633d" x="294.876103" y="35.972893" style="fill: #1f77b4; stroke: #1f77b4"/>
     <use xlink:href="#m5aa34d633d" x="310.234905" y="35.972893" style="fill: #1f77b4; stroke: #1f77b4"/>
     <use xlink:href="#m5aa34d633d" x="325.593707" y="35.972893" style="fill: #1f77b4; stroke: #1f77b4"/>
     <use xlink:href="#m5aa34d633d" x="340.952508" y="35.972893" style="fill: #1f77b4; stroke: #1f77b4"/>
     <use xlink:href="#m5aa34d633d" x="356.31131" y="35.972893" style="fill: #1f77b4; stroke: #1f77b4"/>
     <use xlink:href="#m5aa34d633d" x="371.670112" y="35.972893" style="fill: #1f77b4; stroke: #1f77b4"/>
     <use xlink:href="#m5aa34d633d" x="387.028913" y="35.972893" style="fill: #1f77b4; stroke: #1f77b4"/>
     <use xlink:href="#m5aa34d633d" x="402.387715" y="35.972893" style="fill: #1f77b4; stroke: #1f77b4"/>
     <use xlink:href="#m5aa34d633d" x="417.746517" y="35.972893" style="fill: #1f77b4; stroke: #1f77b4"/>
     <use xlink:href="#m5aa34d633d" x="433.105318" y="35.972893" style="fill: #1f77b4; stroke: #1f77b4"/>
    </g>
   </g>
   <g id="line2d_26">
    <path d="M 95.211682 217.830753 
L 110.570483 217.830753 
L 125.929285 217.830753 
L 141.288087 217.830753 
L 156.646888 217.830753 
L 172.00569 217.830753 
L 187.364492 217.830753 
L 202.723293 217.830753 
L 218.082095 217.830753 
L 233.440897 217.830753 
L 248.799698 217.830753 
L 264.1585 217.830753 
L 279.517302 217.830753 
L 294.876103 217.830753 
L 310.234905 217.830753 
L 325.593707 217.830753 
L 340.952508 217.830753 
L 356.31131 217.830753 
L 371.670112 217.830753 
L 387.028913 217.830753 
L 402.387715 217.830753 
L 417.746517 217.830753 
L 433.105318 217.830753 
" clip-path="url(#p19bf08556c)" style="fill: none; stroke: #ff7f0e; stroke-width: 1.5; stroke-linecap: square"/>
    <defs>
     <path id="ma32567e15c" d="M 0 3 
C 0.795609 3 1.55874 2.683901 2.12132 2.12132 
C 2.683901 1.55874 3 0.795609 3 0 
C 3 -0.795609 2.683901 -1.55874 2.12132 -2.12132 
C 1.55874 -2.683901 0.795609 -3 0 -3 
C -0.795609 -3 -1.55874 -2.683901 -2.12132 -2.12132 
C -2.683901 -1.55874 -3 -0.795609 -3 0 
C -3 0.795609 -2.683901 1.55874 -2.12132 2.12132 
C -1.55874 2.683901 -0.795609 3 0 3 
z
" style="stroke: #ff7f0e"/>
    </defs>
    <g clip-path="url(#p19bf08556c)">
     <use xlink:href="#ma32567e15c" x="95.211682" y="217.830753" style="fill: #ff7f0e; stroke: #ff7f0e"/>
     <use xlink:href="#ma32567e15c" x="110.570483" y="217.830753" style="fill: #ff7f0e; stroke: #ff7f0e"/>
     <use xlink:href="#ma32567e15c" x="125.929285" y="217.830753" style="fill: #ff7f0e; stroke: #ff7f0e"/>
     <use xlink:href="#ma32567e15c" x="141.288087" y="217.830753" style="fill: #ff7f0e; stroke: #ff7f0e"/>
     <use xlink:href="#ma32567e15c" x="156.646888" y="217.830753" style="fill: #ff7f0e; stroke: #ff7f0e"/>
     <use xlink:href="#ma32567e15c" x="172.00569" y="217.830753" style="fill: #ff7f0e; stroke: #ff7f0e"/>
     <use xlink:href="#ma32567e15c" x="187.364492" y="217.830753" style="fill: #ff7f0e; stroke: #ff7f0e"/>
     <use xlink:href="#ma32567e15c" x="202.723293" y="217.830753" style="fill: #ff7f0e; stroke: #ff7f0e"/>
     <use xlink:href="#ma32567e15c" x="218.082095" y="217.830753" style="fill: #ff7f0e; stroke: #ff7f0e"/>
     <use xlink:href="#ma32567e15c" x="233.440897" y="217.830753" style="fill: #ff7f0e; stroke: #ff7f0e"/>
     <use xlink:href="#ma32567e15c" x="248.799698" y="217.830753" style="fill: #ff7f0e; stroke: #ff7f0e"/>
     <use xlink:href="#ma32567e15c" x="264.1585" y="217.830753" style="fill: #ff7f0e; stroke: #ff7f0e"/>
     <use xlink:href="#ma32567e15c" x="279.517302" y="217.830753" style="fill: #ff7f0e; stroke: #ff7f0e"/>
     <use xlink:href="#ma32567e15c" x="294.876103" y="217.830753" style="fill: #ff7f0e; stroke: #ff7f0e"/>
     <use xlink:href="#ma32567e15c" x="310.234905" y="217.830753" style="fill: #ff7f0e; stroke: #ff7f0e"/>
     <use xlink:href="#ma32567e15c" x="325.593707" y="217.830753" style="fill: #ff7f0e; stroke: #ff7f0e"/>
     <use xlink:href="#ma32567e15c" x="340.952508" y="217.830753" style="fill: #ff7f0e; stroke: #ff7f0e"/>
     <use xlink:href="#ma32567e15c" x="356.31131" y="217.830753" style="fill: #ff7f0e; stroke: #ff7f0e"/>
     <use xlink:href="#ma32567e15c" x="371.670112" y="217.830753" style="fill: #ff7f0e; stroke: #ff7f0e"/>
     <use xlink:href="#ma32567e15c" x="387.028913" y="217.830753" style="fill: #ff7f0e; stroke: #ff7f0e"/>
     <use xlink:href="#ma32567e15c" x="402.387715" y="217.830753" style="fill: #ff7f0e; stroke: #ff7f0e"/>
     <use xlink:href="#ma32567e15c" x="417.746517" y="217.830753" style="fill: #ff7f0e; stroke: #ff7f0e"/>
     <use xlink:href="#ma32567e15c" x="433.105318" y="217.830753" style="fill: #ff7f0e; stroke: #ff7f0e"/>
    </g>
   </g>
   <g id="line2d_27">
    <path d="M 95.211682 217.830753 
L 110.570483 217.830753 
L 125.929285 217.830753 
L 141.288087 217.830753 
L 156.646888 217.830753 
L 172.00569 217.830753 
L 187.364492 217.830753 
L 202.723293 217.830753 
L 218.082095 217.830753 
L 233.440897 217.830753 
L 248.799698 217.830753 
L 264.1585 217.830753 
L 279.517302 217.830753 
L 294.876103 217.830753 
L 310.234905 217.830753 
L 325.593707 217.830753 
L 340.952508 217.830753 
L 356.31131 217.830753 
L 371.670112 217.830753 
L 387.028913 217.830753 
L 402.387715 217.830753 
L 417.746517 217.830753 
L 433.105318 217.830753 
" clip-path="url(#p19bf08556c)" style="fill: none; stroke: #2ca02c; stroke-width: 1.5; stroke-linecap: square"/>
    <defs>
     <path id="mb92557ff74" d="M 0 3 
C 0.795609 3 1.55874 2.683901 2.12132 2.12132 
C 2.683901 1.55874 3 0.795609 3 0 
C 3 -0.795609 2.683901 -1.55874 2.12132 -2.12132 
C 1.55874 -2.683901 0.795609 -3 0 -3 
C -0.795609 -3 -1.55874 -2.683901 -2.12132 -2.12132 
C -2.683901 -1.55874 -3 -0.795609 -3 0 
C -3 0.795609 -2.683901 1.55874 -2.12132 2.12132 
C -1.55874 2.683901 -0.795609 3 0 3 
z
" style="stroke: #2ca02c"/>
    </defs>
    <g clip-path="url(#p19bf08556c)">
     <use xlink:href="#mb92557ff74" x="95.211682" y="217.830753" style="fill: #2ca02c; stroke: #2ca02c"/>
     <use xlink:href="#mb92557ff74" x="110.570483" y="217.830753" style="fill: #2ca02c; stroke: #2ca02c"/>
     <use xlink:href="#mb92557ff74" x="125.929285" y="217.830753" style="fill: #2ca02c; stroke: #2ca02c"/>
     <use xlink:href="#mb92557ff74" x="141.288087" y="217.830753" style="fill: #2ca02c; stroke: #2ca02c"/>
     <use xlink:href="#mb92557ff74" x="156.646888" y="217.830753" style="fill: #2ca02c; stroke: #2ca02c"/>
     <use xlink:href="#mb92557ff74" x="172.00569" y="217.830753" style="fill: #2ca02c; stroke: #2ca02c"/>
     <use xlink:href="#mb92557ff74" x="187.364492" y="217.830753" style="fill: #2ca02c; stroke: #2ca02c"/>
     <use xlink:href="#mb92557ff74" x="202.723293" y="217.830753" style="fill: #2ca02c; stroke: #2ca02c"/>
     <use xlink:href="#mb92557ff74" x="218.082095" y="217.830753" style="fill: #2ca02c; stroke: #2ca02c"/>
     <use xlink:href="#mb92557ff74" x="233.440897" y="217.830753" style="fill: #2ca02c; stroke: #2ca02c"/>
     <use xlink:href="#mb92557ff74" x="248.799698" y="217.830753" style="fill: #2ca02c; stroke: #2ca02c"/>
     <use xlink:href="#mb92557ff74" x="264.1585" y="217.830753" style="fill: #2ca02c; stroke: #2ca02c"/>
     <use xlink:href="#mb92557ff74" x="279.517302" y="217.830753" style="fill: #2ca02c; stroke: #2ca02c"/>
     <use xlink:href="#mb92557ff74" x="294.876103" y="217.830753" style="fill: #2ca02c; stroke: #2ca02c"/>
     <use xlink:href="#mb92557ff74" x="310.234905" y="217.830753" style="fill: #2ca02c; stroke: #2ca02c"/>
     <use xlink:href="#mb92557ff74" x="325.593707" y="217.830753" style="fill: #2ca02c; stroke: #2ca02c"/>
     <use xlink:href="#mb92557ff74" x="340.952508" y="217.830753" style="fill: #2ca02c; stroke: #2ca02c"/>
     <use xlink:href="#mb92557ff74" x="356.31131" y="217.830753" style="fill: #2ca02c; stroke: #2ca02c"/>
     <use xlink:href="#mb92557ff74" x="371.670112" y="217.830753" style="fill: #2ca02c; stroke: #2ca02c"/>
     <use xlink:href="#mb92557ff74" x="387.028913" y="217.830753" style="fill: #2ca02c; stroke: #2ca02c"/>
     <use xlink:href="#mb92557ff74" x="402.387715" y="217.830753" style="fill: #2ca02c; stroke: #2ca02c"/>
     <use xlink:href="#mb92557ff74" x="417.746517" y="217.830753" style="fill: #2ca02c; stroke: #2ca02c"/>
     <use xlink:href="#mb92557ff74" x="433.105318" y="217.830753" style="fill: #2ca02c; stroke: #2ca02c"/>
    </g>
   </g>
   <g id="patch_3">
    <path d="M 78.317 217.830753 
L 78.317 26.88 
" style="fill: none; stroke: #000000; stroke-width: 0.8; stroke-linejoin: miter; stroke-linecap: square"/>
   </g>
   <g id="patch_4">
    <path d="M 450 217.830753 
L 450 26.88 
" style="fill: none; stroke: #000000; stroke-width: 0.8; stroke-linejoin: miter; stroke-linecap: square"/>
   </g>
   <g id="patch_5">
    <path d="M 78.317 217.830753 
L 450 217.830753 
" style="fill: none; stroke: #000000; stroke-width: 0.8; stroke-linejoin: miter; stroke-linecap: square"/>
   </g>
   <g id="patch_6">
    <path d="M 78.317 26.88 
L 450 26.88 
" style="fill: none; stroke: #000000; stroke-width: 0.8; stroke-linejoin: miter; stroke-linecap: square"/>
   </g>
   <g id="text_20">
    <!-- Core Profile -->
    <g transform="translate(229.713812 20.88) scale(0.12 -0.12)">
     <defs>
      <path id="DejaVuSans-43" d="M 4122 4306 
L 4122 3641 
Q 3803 3938 3442 4084 
Q 3081 4231 2675 4231 
Q 1875 4231 1450 3742 
Q 1025 3253 1025 2328 
Q 1025 1406 1450 917 
Q 1875 428 2675 428 
Q 3081 428 3442 575 
Q 3803 722 4122 1019 
L 4122 359 
Q 3791 134 3420 21 
Q 3050 -91 2638 -91 
Q 1578 -91 968 557 
Q 359 1206 359 2328 
Q 359 3453 968 4101 
Q 1578 4750 2638 4750 
Q 3056 4750 3426 4639 
Q 3797 4528 4122 4306 
z
" transform="scale(0.015625)"/>
      <path id="DejaVuSans-6f" d="M 1959 3097 
Q 1497 3097 1228 2736 
Q 959 2375 959 1747 
Q 959 1119 1226 758 
Q 1494 397 1959 397 
Q 2419 397 2687 759 
Q 2956 1122 2956 1747 
Q 2956 2369 2687 2733 
Q 2419 3097 1959 3097 
z
M 1959 3584 
Q 2709 3584 3137 3096 
Q 3566 2609 3566 1747 
Q 3566 888 3137 398 
Q 2709 -91 1959 -91 
Q 1206 -91 779 398 
Q 353 888 353 1747 
Q 353 2609 779 3096 
Q 1206 3584 1959 3584 
z
" transform="scale(0.015625)"/>
      <path id="DejaVuSans-72" d="M 2631 2963 
Q 2534 3019 2420 3045 
Q 2306 3072 2169 3072 
Q 1681 3072 1420 2755 
Q 1159 2438 1159 1844 
L 1159 0 
L 581 0 
L 581 3500 
L 1159 3500 
L 1159 2956 
Q 1341 3275 1631 3429 
Q 1922 3584 2338 3584 
Q 2397 3584 2469 3576 
Q 2541 3569 2628 3553 
L 2631 2963 
z
" transform="scale(0.015625)"/>
      <path id="DejaVuSans-20" transform="scale(0.015625)"/>
      <path id="DejaVuSans-50" d="M 1259 4147 
L 1259 2394 
L 2053 2394 
Q 2494 2394 2734 2622 
Q 2975 2850 2975 3272 
Q 2975 3691 2734 3919 
Q 2494 4147 2053 4147 
L 1259 4147 
z
M 628 4666 
L 2053 4666 
Q 2838 4666 3239 4311 
Q 3641 3956 3641 3272 
Q 3641 2581 3239 2228 
Q 2838 1875 2053 1875 
L 1259 1875 
L 1259 0 
L 628 0 
L 628 4666 
z
" transform="scale(0.015625)"/>
      <path id="DejaVuSans-66" d="M 2375 4863 
L 2375 4384 
L 1825 4384 
Q 1516 4384 1395 4259 
Q 1275 4134 1275 3809 
L 1275 3500 
L 2222 3500 
L 2222 3053 
L 1275 3053 
L 1275 0 
L 697 0 
L 697 3053 
L 147 3053 
L 147 3500 
L 697 3500 
L 697 3744 
Q 697 4328 969 4595 
Q 1241 4863 1831 4863 
L 2375 4863 
z
" transform="scale(0.015625)"/>
      <path id="DejaVuSans-69" d="M 603 3500 
L 1178 3500 
L 1178 0 
L 603 0 
L 603 3500 
z
M 603 4863 
L 1178 4863 
L 1178 4134 
L 603 4134 
L 603 4863 
z
" transform="scale(0.015625)"/>
      <path id="DejaVuSans-6c" d="M 603 4863 
L 1178 4863 
L 1178 0 
L 603 0 
L 603 4863 
z
" transform="scale(0.015625)"/>
     </defs>
     <use xlink:href="#DejaVuSans-43"/>
     <use xlink:href="#DejaVuSans-6f" transform="translate(69.824219 0)"/>
     <use xlink:href="#DejaVuSans-72" transform="translate(131.005859 0)"/>
     <use xlink:href="#DejaVuSans-65" transform="translate(169.869141 0)"/>
     <use xlink:href="#DejaVuSans-20" transform="translate(231.392578 0)"/>
     <use xlink:href="#DejaVuSans-50" transform="translate(263.179688 0)"/>
     <use xlink:href="#DejaVuSans-72" transform="translate(321.732422 0)"/>
     <use xlink:href="#DejaVuSans-6f" transform="translate(360.595703 0)"/>
     <use xlink:href="#DejaVuSans-66" transform="translate(421.777344 0)"/>
     <use xlink:href="#DejaVuSans-69" transform="translate(456.982422 0)"/>
     <use xlink:href="#DejaVuSans-6c" transform="translate(484.765625 0)"/>
     <use xlink:href="#DejaVuSans-65" transform="translate(512.548828 0)"/>
    </g>
   </g>
   <g id="legend_1">
    <g id="patch_7">
     <path d="M 85.317 212.830753 
L 139.842 212.830753 
Q 141.842 212.830753 141.842 210.830753 
L 141.842 167.796378 
Q 141.842 165.796378 139.842 165.796378 
L 85.317 165.796378 
Q 83.317 165.796378 83.317 167.796378 
L 83.317 210.830753 
Q 83.317 212.830753 85.317 212.830753 
z
" style="fill: #ffffff; opacity: 0.8; stroke: #cccccc; stroke-linejoin: miter"/>
    </g>
    <g id="line2d_28">
     <path d="M 87.317 173.894816 
L 97.317 173.894816 
L 107.317 173.894816 
" style="fill: none; stroke: #1f77b4; stroke-width: 1.5; stroke-linecap: square"/>
     <g>
      <use xlink:href="#m5aa34d633d" x="97.317" y="173.894816" style="fill: #1f77b4; stroke: #1f77b4"/>
     </g>
    </g>
    <g id="text_21">
     <!-- text -->
     <g transform="translate(115.317 177.394816) scale(0.1 -0.1)">
      <defs>
       <path id="DejaVuSans-78" d="M 3513 3500 
L 2247 1797 
L 3578 0 
L 2900 0 
L 1881 1375 
L 863 0 
L 184 0 
L 1544 1831 
L 300 3500 
L 978 3500 
L 1906 2253 
L 2834 3500 
L 3513 3500 
z
" transform="scale(0.015625)"/>
      </defs>
      <use xlink:href="#DejaVuSans-74"/>
      <use xlink:href="#DejaVuSans-65" transform="translate(39.208984 0)"/>
      <use xlink:href="#DejaVuSans-78" transform="translate(98.982422 0)"/>
      <use xlink:href="#DejaVuSans-74" transform="translate(158.162109 0)"/>
     </g>
    </g>
    <g id="line2d_29">
     <path d="M 87.317 188.572941 
L 97.317 188.572941 
L 107.317 188.572941 
" style="fill: none; stroke: #ff7f0e; stroke-width: 1.5; stroke-linecap: square"/>
     <g>
      <use xlink:href="#ma32567e15c" x="97.317" y="188.572941" style="fill: #ff7f0e; stroke: #ff7f0e"/>
     </g>
    </g>
    <g id="text_22">
     <!-- data -->
     <g transform="translate(115.317 192.072941) scale(0.1 -0.1)">
      <defs>
       <path id="DejaVuSans-64" d="M 2906 2969 
L 2906 4863 
L 3481 4863 
L 3481 0 
L 2906 0 
L 2906 525 
Q 2725 213 2448 61 
Q 2172 -91 1784 -91 
Q 1150 -91 751 415 
Q 353 922 353 1747 
Q 353 2572 751 3078 
Q 1150 3584 1784 3584 
Q 2172 3584 2448 3432 
Q 2725 3281 2906 2969 
z
M 947 1747 
Q 947 1113 1208 752 
Q 1469 391 1925 391 
Q 2381 391 2643 752 
Q 2906 1113 2906 1747 
Q 2906 2381 2643 2742 
Q 2381 3103 1925 3103 
Q 1469 3103 1208 2742 
Q 947 2381 947 1747 
z
" transform="scale(0.015625)"/>
       <path id="DejaVuSans-61" d="M 2194 1759 
Q 1497 1759 1228 1600 
Q 959 1441 959 1056 
Q 959 750 1161 570 
Q 1363 391 1709 391 
Q 2188 391 2477 730 
Q 2766 1069 2766 1631 
L 2766 1759 
L 2194 1759 
z
M 3341 1997 
L 3341 0 
L 2766 0 
L 2766 531 
Q 2569 213 2275 61 
Q 1981 -91 1556 -91 
Q 1019 -91 701 211 
Q 384 513 384 1019 
Q 384 1609 779 1909 
Q 1175 2209 1959 2209 
L 2766 2209 
L 2766 2266 
Q 2766 2663 2505 2880 
Q 2244 3097 1772 3097 
Q 1472 3097 1187 3025 
Q 903 2953 641 2809 
L 641 3341 
Q 956 3463 1253 3523 
Q 1550 3584 1831 3584 
Q 2591 3584 2966 3190 
Q 3341 2797 3341 1997 
z
" transform="scale(0.015625)"/>
      </defs>
      <use xlink:href="#DejaVuSans-64"/>
      <use xlink:href="#DejaVuSans-61" transform="translate(63.476562 0)"/>
      <use xlink:href="#DejaVuSans-74" transform="translate(124.755859 0)"/>
      <use xlink:href="#DejaVuSans-61" transform="translate(163.964844 0)"/>
     </g>
    </g>
    <g id="line2d_30">
     <path d="M 87.317 203.251066 
L 97.317 203.251066 
L 107.317 203.251066 
" style="fill: none; stroke: #2ca02c; stroke-width: 1.5; stroke-linecap: square"/>
     <g>
      <use xlink:href="#mb92557ff74" x="97.317" y="203.251066" style="fill: #2ca02c; stroke: #2ca02c"/>
     </g>
    </g>
    <g id="text_23">
     <!-- bss -->
     <g transform="translate(115.317 206.751066) scale(0.1 -0.1)">
      <defs>
       <path id="DejaVuSans-62" d="M 3116 1747 
Q 3116 2381 2855 2742 
Q 2594 3103 2138 3103 
Q 1681 3103 1420 2742 
Q 1159 2381 1159 1747 
Q 1159 1113 1420 752 
Q 1681 391 2138 391 
Q 2594 391 2855 752 
Q 3116 1113 3116 1747 
z
M 1159 2969 
Q 1341 3281 1617 3432 
Q 1894 3584 2278 3584 
Q 2916 3584 3314 3078 
Q 3713 2572 3713 1747 
Q 3713 922 3314 415 
Q 2916 -91 2278 -91 
Q 1894 -91 1617 61 
Q 1341 213 1159 525 
L 1159 0 
L 581 0 
L 581 4863 
L 1159 4863 
L 1159 2969 
z
" transform="scale(0.015625)"/>
      </defs>
      <use xlink:href="#DejaVuSans-62"/>
      <use xlink:href="#DejaVuSans-73" transform="translate(63.476562 0)"/>
      <use xlink:href="#DejaVuSans-73" transform="translate(115.576172 0)"/>
     </g>
    </g>
   </g>
  </g>
 </g>
 <defs>
  <clipPath id="p19bf08556c">
   <rect x="78.317" y="26.88" width="371.683" height="190.950753"/>
  </clipPath>
 </defs>
</svg>
