<?xml version="1.0" encoding="utf-8" standalone="no"?>
<!DOCTYPE svg PUBLIC "-//W3C//DTD SVG 1.1//EN"
  "http://www.w3.org/Graphics/SVG/1.1/DTD/svg11.dtd">
<svg xmlns:xlink="http://www.w3.org/1999/xlink" width="460.8pt" height="345.6pt" viewBox="0 0 460.8 345.6" xmlns="http://www.w3.org/2000/svg" version="1.1">
 <metadata>
  <rdf:RDF xmlns:dc="http://purl.org/dc/elements/1.1/" xmlns:cc="http://creativecommons.org/ns#" xmlns:rdf="http://www.w3.org/1999/02/22-rdf-syntax-ns#">
   <cc:Work>
    <dc:type rdf:resource="http://purl.org/dc/dcmitype/StillImage"/>
    <dc:date>2025-11-30T13:21:45.447462</dc:date>
    <dc:format>image/svg+xml</dc:format>
    <dc:creator>
     <cc:Agent>
      <dc:title>Matplotlib v3.10.7, https://matplotlib.org/</dc:title>
     </cc:Agent>
    </dc:creator>
   </cc:Work>
  </rdf:RDF>
 </metadata>
 <defs>
  <style type="text/css">*{stroke-linejoin: round; stroke-linecap: butt}</style>
 </defs>
 <g id="figure_1">
  <g id="patch_1">
   <path d="M 0 345.6 
L 460.8 345.6 
L 460.8 0 
L 0 0 
z
" style="fill: #ffffff"/>
  </g>
  <g id="axes_1">
   <g id="patch_2">
    <path d="M 78.317 217.830753 
L 450 217.830753 
L 450 26.88 
L 78.317 26.88 
z
" style="fill: #ffffff"/>
   </g>
   <g id="matplotlib.axis_1">
    <g id="xtick_1">
     <g id="line2d_1">
      <defs>
       <path id="mb8e991aa05" d="M 0 0 
L 0 3.5 
" style="stroke: #000000; stroke-width: 0.8"/>
      </defs>
      <g>
       <use xlink:href="#mb8e991aa05" x="95.211682" y="217.830753" style="stroke: #000000; stroke-width: 0.8"/>
      </g>
     </g>
     <g id="text_1">
      <!-- 2025-09-25T14:16:05 -->
      <g transform="translate(16.570359 307.374422) rotate(-45) scale(0.1 -0.1)">
       <defs>
        <path id="DejaVuSans-32" d="M 1228 531 
L 3431 531 
L 3431 0 
L 469 0 
L 469 531 
Q 828 903 1448 1529 
Q 2069 2156 2228 2338 
Q 2531 2678 2651 2914 
Q 2772 3150 2772 3378 
Q 2772 3750 2511 3984 
Q 2250 4219 1831 4219 
Q 1534 4219 1204 4116 
Q 875 4013 500 3803 
L 500 4441 
Q 881 4594 1212 4672 
Q 1544 4750 1819 4750 
Q 2544 4750 2975 4387 
Q 3406 4025 3406 3419 
Q 3406 3131 3298 2873 
Q 3191 2616 2906 2266 
Q 2828 2175 2409 1742 
Q 1991 1309 1228 531 
z
" transform="scale(0.015625)"/>
        <path id="DejaVuSans-30" d="M 2034 4250 
Q 1547 4250 1301 3770 
Q 1056 3291 1056 2328 
Q 1056 1369 1301 889 
Q 1547 409 2034 409 
Q 2525 409 2770 889 
Q 3016 1369 3016 2328 
Q 3016 3291 2770 3770 
Q 2525 4250 2034 4250 
z
M 2034 4750 
Q 2819 4750 3233 4129 
Q 3647 3509 3647 2328 
Q 3647 1150 3233 529 
Q 2819 -91 2034 -91 
Q 1250 -91 836 529 
Q 422 1150 422 2328 
Q 422 3509 836 4129 
Q 1250 4750 2034 4750 
z
" transform="scale(0.015625)"/>
        <path id="DejaVuSans-35" d="M 691 4666 
L 3169 4666 
L 3169 4134 
L 1269 4134 
L 1269 2991 
Q 1406 3038 1543 3061 
Q 1681 3084 1819 3084 
Q 2600 3084 3056 2656 
Q 3513 2228 3513 1497 
Q 3513 744 3044 326 
Q 2575 -91 1722 -91 
Q 1428 -91 1123 -41 
Q 819 9 494 109 
L 494 744 
Q 775 591 1075 516 
Q 1375 441 1709 441 
Q 2250 441 2565 725 
Q 2881 1009 2881 1497 
Q 2881 1984 2565 2268 
Q 2250 2553 1709 2553 
Q 1456 2553 1204 2497 
Q 953 2441 691 2322 
L 691 4666 
z
" transform="scale(0.015625)"/>
        <path id="DejaVuSans-2d" d="M 313 2009 
L 1997 2009 
L 1997 1497 
L 313 1497 
L 313 2009 
z
" transform="scale(0.015625)"/>
        <path id="DejaVuSans-39" d="M 703 97 
L 703 672 
Q 941 559 1184 500 
Q 1428 441 1663 441 
Q 2288 441 2617 861 
Q 2947 1281 2994 2138 
Q 2813 1869 2534 1725 
Q 2256 1581 1919 1581 
Q 1219 1581 811 2004 
Q 403 2428 403 3163 
Q 403 3881 828 4315 
Q 1253 4750 1959 4750 
Q 2769 4750 3195 4129 
Q 3622 3509 3622 2328 
Q 3622 1225 3098 567 
Q 2575 -91 1691 -91 
Q 1453 -91 1209 -44 
Q 966 3 703 97 
z
M 1959 2075 
Q 2384 2075 2632 2365 
Q 2881 2656 2881 3163 
Q 2881 3666 2632 3958 
Q 2384 4250 1959 4250 
Q 1534 4250 1286 3958 
Q 1038 3666 1038 3163 
Q 1038 2656 1286 2365 
Q 1534 2075 1959 2075 
z
" transform="scale(0.015625)"/>
        <path id="DejaVuSans-54" d="M -19 4666 
L 3928 4666 
L 3928 4134 
L 2272 4134 
L 2272 0 
L 1638 0 
L 1638 4134 
L -19 4134 
L -19 4666 
z
" transform="scale(0.015625)"/>
        <path id="DejaVuSans-31" d="M 794 531 
L 1825 531 
L 1825 4091 
L 703 3866 
L 703 4441 
L 1819 4666 
L 2450 4666 
L 2450 531 
L 3481 531 
L 3481 0 
L 794 0 
L 794 531 
z
" transform="scale(0.015625)"/>
        <path id="DejaVuSans-34" d="M 2419 4116 
L 825 1625 
L 2419 1625 
L 2419 4116 
z
M 2253 4666 
L 3047 4666 
L 3047 1625 
L 3713 1625 
L 3713 1100 
L 3047 1100 
L 3047 0 
L 2419 0 
L 2419 1100 
L 313 1100 
L 313 1709 
L 2253 4666 
z
" transform="scale(0.015625)"/>
        <path id="DejaVuSans-3a" d="M 750 794 
L 1409 794 
L 1409 0 
L 750 0 
L 750 794 
z
M 750 3309 
L 1409 3309 
L 1409 2516 
L 750 2516 
L 750 3309 
z
" transform="scale(0.015625)"/>
        <path id="DejaVuSans-36" d="M 2113 2584 
Q 1688 2584 1439 2293 
Q 1191 2003 1191 1497 
Q 1191 994 1439 701 
Q 1688 409 2113 409 
Q 2538 409 2786 701 
Q 3034 994 3034 1497 
Q 3034 2003 2786 2293 
Q 2538 2584 2113 2584 
z
M 3366 4563 
L 3366 3988 
Q 3128 4100 2886 4159 
Q 2644 4219 2406 4219 
Q 1781 4219 1451 3797 
Q 1122 3375 1075 2522 
Q 1259 2794 1537 2939 
Q 1816 3084 2150 3084 
Q 2853 3084 3261 2657 
Q 3669 2231 3669 1497 
Q 3669 778 3244 343 
Q 2819 -91 2113 -91 
Q 1303 -91 875 529 
Q 447 1150 447 2328 
Q 447 3434 972 4092 
Q 1497 4750 2381 4750 
Q 2619 4750 2861 4703 
Q 3103 4656 3366 4563 
z
" transform="scale(0.015625)"/>
       </defs>
       <use xlink:href="#DejaVuSans-32"/>
       <use xlink:href="#DejaVuSans-30" transform="translate(63.623047 0)"/>
       <use xlink:href="#DejaVuSans-32" transform="translate(127.246094 0)"/>
       <use xlink:href="#DejaVuSans-35" transform="translate(190.869141 0)"/>
       <use xlink:href="#DejaVuSans-2d" transform="translate(254.492188 0)"/>
       <use xlink:href="#DejaVuSans-30" transform="translate(290.576172 0)"/>
       <use xlink:href="#DejaVuSans-39" transform="translate(354.199219 0)"/>
       <use xlink:href="#DejaVuSans-2d" transform="translate(417.822266 0)"/>
       <use xlink:href="#DejaVuSans-32" transform="translate(453.90625 0)"/>
       <use xlink:href="#DejaVuSans-35" transform="translate(517.529297 0)"/>
       <use xlink:href="#DejaVuSans-54" transform="translate(581.152344 0)"/>
       <use xlink:href="#DejaVuSans-31" transform="translate(642.236328 0)"/>
       <use xlink:href="#DejaVuSans-34" transform="translate(705.859375 0)"/>
       <use xlink:href="#DejaVuSans-3a" transform="translate(769.482422 0)"/>
       <use xlink:href="#DejaVuSans-31" transform="translate(803.173828 0)"/>
       <use xlink:href="#DejaVuSans-36" transform="translate(866.796875 0)"/>
       <use xlink:href="#DejaVuSans-3a" transform="translate(930.419922 0)"/>
       <use xlink:href="#DejaVuSans-30" transform="translate(964.111328 0)"/>
       <use xlink:href="#DejaVuSans-35" transform="translate(1027.734375 0)"/>
      </g>
     </g>
    </g>
    <g id="xtick_2">
     <g id="line2d_2">
      <g>
       <use xlink:href="#mb8e991aa05" x="138.810861" y="217.830753" style="stroke: #000000; stroke-width: 0.8"/>
      </g>
     </g>
     <g id="text_2">
      <!-- 2025-09-26T06:58:45 -->
      <g transform="translate(60.169538 307.374422) rotate(-45) scale(0.1 -0.1)">
       <defs>
        <path id="DejaVuSans-38" d="M 2034 2216 
Q 1584 2216 1326 1975 
Q 1069 1734 1069 1313 
Q 1069 891 1326 650 
Q 1584 409 2034 409 
Q 2484 409 2743 651 
Q 3003 894 3003 1313 
Q 3003 1734 2745 1975 
Q 2488 2216 2034 2216 
z
M 1403 2484 
Q 997 2584 770 2862 
Q 544 3141 544 3541 
Q 544 4100 942 4425 
Q 1341 4750 2034 4750 
Q 2731 4750 3128 4425 
Q 3525 4100 3525 3541 
Q 3525 3141 3298 2862 
Q 3072 2584 2669 2484 
Q 3125 2378 3379 2068 
Q 3634 1759 3634 1313 
Q 3634 634 3220 271 
Q 2806 -91 2034 -91 
Q 1263 -91 848 271 
Q 434 634 434 1313 
Q 434 1759 690 2068 
Q 947 2378 1403 2484 
z
M 1172 3481 
Q 1172 3119 1398 2916 
Q 1625 2713 2034 2713 
Q 2441 2713 2670 2916 
Q 2900 3119 2900 3481 
Q 2900 3844 2670 4047 
Q 2441 4250 2034 4250 
Q 1625 4250 1398 4047 
Q 1172 3844 1172 3481 
z
" transform="scale(0.015625)"/>
       </defs>
       <use xlink:href="#DejaVuSans-32"/>
       <use xlink:href="#DejaVuSans-30" transform="translate(63.623047 0)"/>
       <use xlink:href="#DejaVuSans-32" transform="translate(127.246094 0)"/>
       <use xlink:href="#DejaVuSans-35" transform="translate(190.869141 0)"/>
       <use xlink:href="#DejaVuSans-2d" transform="translate(254.492188 0)"/>
       <use xlink:href="#DejaVuSans-30" transform="translate(290.576172 0)"/>
       <use xlink:href="#DejaVuSans-39" transform="translate(354.199219 0)"/>
       <use xlink:href="#DejaVuSans-2d" transform="translate(417.822266 0)"/>
       <use xlink:href="#DejaVuSans-32" transform="translate(453.90625 0)"/>
       <use xlink:href="#DejaVuSans-36" transform="translate(517.529297 0)"/>
       <use xlink:href="#DejaVuSans-54" transform="translate(581.152344 0)"/>
       <use xlink:href="#DejaVuSans-30" transform="translate(642.236328 0)"/>
       <use xlink:href="#DejaVuSans-36" transform="translate(705.859375 0)"/>
       <use xlink:href="#DejaVuSans-3a" transform="translate(769.482422 0)"/>
       <use xlink:href="#DejaVuSans-35" transform="translate(803.173828 0)"/>
       <use xlink:href="#DejaVuSans-38" transform="translate(866.796875 0)"/>
       <use xlink:href="#DejaVuSans-3a" transform="translate(930.419922 0)"/>
       <use xlink:href="#DejaVuSans-34" transform="translate(964.111328 0)"/>
       <use xlink:href="#DejaVuSans-35" transform="translate(1027.734375 0)"/>
      </g>
     </g>
    </g>
    <g id="xtick_3">
     <g id="line2d_3">
      <g>
       <use xlink:href="#mb8e991aa05" x="182.41004" y="217.830753" style="stroke: #000000; stroke-width: 0.8"/>
      </g>
     </g>
     <g id="text_3">
      <!-- 2025-09-26T08:53:59+00:00 -->
      <g transform="translate(77.465449 333.677689) rotate(-45) scale(0.1 -0.1)">
       <defs>
        <path id="DejaVuSans-33" d="M 2597 2516 
Q 3050 2419 3304 2112 
Q 3559 1806 3559 1356 
Q 3559 666 3084 287 
Q 2609 -91 1734 -91 
Q 1441 -91 1130 -33 
Q 819 25 488 141 
L 488 750 
Q 750 597 1062 519 
Q 1375 441 1716 441 
Q 2309 441 2620 675 
Q 2931 909 2931 1356 
Q 2931 1769 2642 2001 
Q 2353 2234 1838 2234 
L 1294 2234 
L 1294 2753 
L 1863 2753 
Q 2328 2753 2575 2939 
Q 2822 3125 2822 3475 
Q 2822 3834 2567 4026 
Q 2313 4219 1838 4219 
Q 1578 4219 1281 4162 
Q 984 4106 628 3988 
L 628 4550 
Q 988 4650 1302 4700 
Q 1616 4750 1894 4750 
Q 2613 4750 3031 4423 
Q 3450 4097 3450 3541 
Q 3450 3153 3228 2886 
Q 3006 2619 2597 2516 
z
" transform="scale(0.015625)"/>
        <path id="DejaVuSans-2b" d="M 2944 4013 
L 2944 2272 
L 4684 2272 
L 4684 1741 
L 2944 1741 
L 2944 0 
L 2419 0 
L 2419 1741 
L 678 1741 
L 678 2272 
L 2419 2272 
L 2419 4013 
L 2944 4013 
z
" transform="scale(0.015625)"/>
       </defs>
       <use xlink:href="#DejaVuSans-32"/>
       <use xlink:href="#DejaVuSans-30" transform="translate(63.623047 0)"/>
       <use xlink:href="#DejaVuSans-32" transform="translate(127.246094 0)"/>
       <use xlink:href="#DejaVuSans-35" transform="translate(190.869141 0)"/>
       <use xlink:href="#DejaVuSans-2d" transform="translate(254.492188 0)"/>
       <use xlink:href="#DejaVuSans-30" transform="translate(290.576172 0)"/>
       <use xlink:href="#DejaVuSans-39" transform="translate(354.199219 0)"/>
       <use xlink:href="#DejaVuSans-2d" transform="translate(417.822266 0)"/>
       <use xlink:href="#DejaVuSans-32" transform="translate(453.90625 0)"/>
       <use xlink:href="#DejaVuSans-36" transform="translate(517.529297 0)"/>
       <use xlink:href="#DejaVuSans-54" transform="translate(581.152344 0)"/>
       <use xlink:href="#DejaVuSans-30" transform="translate(642.236328 0)"/>
       <use xlink:href="#DejaVuSans-38" transform="translate(705.859375 0)"/>
       <use xlink:href="#DejaVuSans-3a" transform="translate(769.482422 0)"/>
       <use xlink:href="#DejaVuSans-35" transform="translate(803.173828 0)"/>
       <use xlink:href="#DejaVuSans-33" transform="translate(866.796875 0)"/>
       <use xlink:href="#DejaVuSans-3a" transform="translate(930.419922 0)"/>
       <use xlink:href="#DejaVuSans-35" transform="translate(964.111328 0)"/>
       <use xlink:href="#DejaVuSans-39" transform="translate(1027.734375 0)"/>
       <use xlink:href="#DejaVuSans-2b" transform="translate(1091.357422 0)"/>
       <use xlink:href="#DejaVuSans-30" transform="translate(1175.146484 0)"/>
       <use xlink:href="#DejaVuSans-30" transform="translate(1238.769531 0)"/>
       <use xlink:href="#DejaVuSans-3a" transform="translate(1302.392578 0)"/>
       <use xlink:href="#DejaVuSans-30" transform="translate(1336.083984 0)"/>
       <use xlink:href="#DejaVuSans-30" transform="translate(1399.707031 0)"/>
      </g>
     </g>
    </g>
    <g id="xtick_4">
     <g id="line2d_4">
      <g>
       <use xlink:href="#mb8e991aa05" x="226.009218" y="217.830753" style="stroke: #000000; stroke-width: 0.8"/>
      </g>
     </g>
     <g id="text_4">
      <!-- 2025-09-26T09:49:01+00:00 -->
      <g transform="translate(121.064628 333.677689) rotate(-45) scale(0.1 -0.1)">
       <use xlink:href="#DejaVuSans-32"/>
       <use xlink:href="#DejaVuSans-30" transform="translate(63.623047 0)"/>
       <use xlink:href="#DejaVuSans-32" transform="translate(127.246094 0)"/>
       <use xlink:href="#DejaVuSans-35" transform="translate(190.869141 0)"/>
       <use xlink:href="#DejaVuSans-2d" transform="translate(254.492188 0)"/>
       <use xlink:href="#DejaVuSans-30" transform="translate(290.576172 0)"/>
       <use xlink:href="#DejaVuSans-39" transform="translate(354.199219 0)"/>
       <use xlink:href="#DejaVuSans-2d" transform="translate(417.822266 0)"/>
       <use xlink:href="#DejaVuSans-32" transform="translate(453.90625 0)"/>
       <use xlink:href="#DejaVuSans-36" transform="translate(517.529297 0)"/>
       <use xlink:href="#DejaVuSans-54" transform="translate(581.152344 0)"/>
       <use xlink:href="#DejaVuSans-30" transform="translate(642.236328 0)"/>
       <use xlink:href="#DejaVuSans-39" transform="translate(705.859375 0)"/>
       <use xlink:href="#DejaVuSans-3a" transform="translate(769.482422 0)"/>
       <use xlink:href="#DejaVuSans-34" transform="translate(803.173828 0)"/>
       <use xlink:href="#DejaVuSans-39" transform="translate(866.796875 0)"/>
       <use xlink:href="#DejaVuSans-3a" transform="translate(930.419922 0)"/>
       <use xlink:href="#DejaVuSans-30" transform="translate(964.111328 0)"/>
       <use xlink:href="#DejaVuSans-31" transform="translate(1027.734375 0)"/>
       <use xlink:href="#DejaVuSans-2b" transform="translate(1091.357422 0)"/>
       <use xlink:href="#DejaVuSans-30" transform="translate(1175.146484 0)"/>
       <use xlink:href="#DejaVuSans-30" transform="translate(1238.769531 0)"/>
       <use xlink:href="#DejaVuSans-3a" transform="translate(1302.392578 0)"/>
       <use xlink:href="#DejaVuSans-30" transform="translate(1336.083984 0)"/>
       <use xlink:href="#DejaVuSans-30" transform="translate(1399.707031 0)"/>
      </g>
     </g>
    </g>
    <g id="xtick_5">
     <g id="line2d_5">
      <g>
       <use xlink:href="#mb8e991aa05" x="269.608397" y="217.830753" style="stroke: #000000; stroke-width: 0.8"/>
      </g>
     </g>
     <g id="text_5">
      <!-- 2025-09-26T11:12:09+00:00 -->
      <g transform="translate(164.663807 333.677689) rotate(-45) scale(0.1 -0.1)">
       <use xlink:href="#DejaVuSans-32"/>
       <use xlink:href="#DejaVuSans-30" transform="translate(63.623047 0)"/>
       <use xlink:href="#DejaVuSans-32" transform="translate(127.246094 0)"/>
       <use xlink:href="#DejaVuSans-35" transform="translate(190.869141 0)"/>
       <use xlink:href="#DejaVuSans-2d" transform="translate(254.492188 0)"/>
       <use xlink:href="#DejaVuSans-30" transform="translate(290.576172 0)"/>
       <use xlink:href="#DejaVuSans-39" transform="translate(354.199219 0)"/>
       <use xlink:href="#DejaVuSans-2d" transform="translate(417.822266 0)"/>
       <use xlink:href="#DejaVuSans-32" transform="translate(453.90625 0)"/>
       <use xlink:href="#DejaVuSans-36" transform="translate(517.529297 0)"/>
       <use xlink:href="#DejaVuSans-54" transform="translate(581.152344 0)"/>
       <use xlink:href="#DejaVuSans-31" transform="translate(642.236328 0)"/>
       <use xlink:href="#DejaVuSans-31" transform="translate(705.859375 0)"/>
       <use xlink:href="#DejaVuSans-3a" transform="translate(769.482422 0)"/>
       <use xlink:href="#DejaVuSans-31" transform="translate(803.173828 0)"/>
       <use xlink:href="#DejaVuSans-32" transform="translate(866.796875 0)"/>
       <use xlink:href="#DejaVuSans-3a" transform="translate(930.419922 0)"/>
       <use xlink:href="#DejaVuSans-30" transform="translate(964.111328 0)"/>
       <use xlink:href="#DejaVuSans-39" transform="translate(1027.734375 0)"/>
       <use xlink:href="#DejaVuSans-2b" transform="translate(1091.357422 0)"/>
       <use xlink:href="#DejaVuSans-30" transform="translate(1175.146484 0)"/>
       <use xlink:href="#DejaVuSans-30" transform="translate(1238.769531 0)"/>
       <use xlink:href="#DejaVuSans-3a" transform="translate(1302.392578 0)"/>
       <use xlink:href="#DejaVuSans-30" transform="translate(1336.083984 0)"/>
       <use xlink:href="#DejaVuSans-30" transform="translate(1399.707031 0)"/>
      </g>
     </g>
    </g>
    <g id="xtick_6">
     <g id="line2d_6">
      <g>
       <use xlink:href="#mb8e991aa05" x="313.207576" y="217.830753" style="stroke: #000000; stroke-width: 0.8"/>
      </g>
     </g>
     <g id="text_6">
      <!-- 2025-09-29T05:36:09+00:00 -->
      <g transform="translate(208.262986 333.677689) rotate(-45) scale(0.1 -0.1)">
       <use xlink:href="#DejaVuSans-32"/>
       <use xlink:href="#DejaVuSans-30" transform="translate(63.623047 0)"/>
       <use xlink:href="#DejaVuSans-32" transform="translate(127.246094 0)"/>
       <use xlink:href="#DejaVuSans-35" transform="translate(190.869141 0)"/>
       <use xlink:href="#DejaVuSans-2d" transform="translate(254.492188 0)"/>
       <use xlink:href="#DejaVuSans-30" transform="translate(290.576172 0)"/>
       <use xlink:href="#DejaVuSans-39" transform="translate(354.199219 0)"/>
       <use xlink:href="#DejaVuSans-2d" transform="translate(417.822266 0)"/>
       <use xlink:href="#DejaVuSans-32" transform="translate(453.90625 0)"/>
       <use xlink:href="#DejaVuSans-39" transform="translate(517.529297 0)"/>
       <use xlink:href="#DejaVuSans-54" transform="translate(581.152344 0)"/>
       <use xlink:href="#DejaVuSans-30" transform="translate(642.236328 0)"/>
       <use xlink:href="#DejaVuSans-35" transform="translate(705.859375 0)"/>
       <use xlink:href="#DejaVuSans-3a" transform="translate(769.482422 0)"/>
       <use xlink:href="#DejaVuSans-33" transform="translate(803.173828 0)"/>
       <use xlink:href="#DejaVuSans-36" transform="translate(866.796875 0)"/>
       <use xlink:href="#DejaVuSans-3a" transform="translate(930.419922 0)"/>
       <use xlink:href="#DejaVuSans-30" transform="translate(964.111328 0)"/>
       <use xlink:href="#DejaVuSans-39" transform="translate(1027.734375 0)"/>
       <use xlink:href="#DejaVuSans-2b" transform="translate(1091.357422 0)"/>
       <use xlink:href="#DejaVuSans-30" transform="translate(1175.146484 0)"/>
       <use xlink:href="#DejaVuSans-30" transform="translate(1238.769531 0)"/>
       <use xlink:href="#DejaVuSans-3a" transform="translate(1302.392578 0)"/>
       <use xlink:href="#DejaVuSans-30" transform="translate(1336.083984 0)"/>
       <use xlink:href="#DejaVuSans-30" transform="translate(1399.707031 0)"/>
      </g>
     </g>
    </g>
    <g id="xtick_7">
     <g id="line2d_7">
      <g>
       <use xlink:href="#mb8e991aa05" x="356.806755" y="217.830753" style="stroke: #000000; stroke-width: 0.8"/>
      </g>
     </g>
     <g id="text_7">
      <!-- 2025-10-12T13:22:31+00:00 -->
      <g transform="translate(251.862165 333.677689) rotate(-45) scale(0.1 -0.1)">
       <use xlink:href="#DejaVuSans-32"/>
       <use xlink:href="#DejaVuSans-30" transform="translate(63.623047 0)"/>
       <use xlink:href="#DejaVuSans-32" transform="translate(127.246094 0)"/>
       <use xlink:href="#DejaVuSans-35" transform="translate(190.869141 0)"/>
       <use xlink:href="#DejaVuSans-2d" transform="translate(254.492188 0)"/>
       <use xlink:href="#DejaVuSans-31" transform="translate(290.576172 0)"/>
       <use xlink:href="#DejaVuSans-30" transform="translate(354.199219 0)"/>
       <use xlink:href="#DejaVuSans-2d" transform="translate(417.822266 0)"/>
       <use xlink:href="#DejaVuSans-31" transform="translate(453.90625 0)"/>
       <use xlink:href="#DejaVuSans-32" transform="translate(517.529297 0)"/>
       <use xlink:href="#DejaVuSans-54" transform="translate(581.152344 0)"/>
       <use xlink:href="#DejaVuSans-31" transform="translate(642.236328 0)"/>
       <use xlink:href="#DejaVuSans-33" transform="translate(705.859375 0)"/>
       <use xlink:href="#DejaVuSans-3a" transform="translate(769.482422 0)"/>
       <use xlink:href="#DejaVuSans-32" transform="translate(803.173828 0)"/>
       <use xlink:href="#DejaVuSans-32" transform="translate(866.796875 0)"/>
       <use xlink:href="#DejaVuSans-3a" transform="translate(930.419922 0)"/>
       <use xlink:href="#DejaVuSans-33" transform="translate(964.111328 0)"/>
       <use xlink:href="#DejaVuSans-31" transform="translate(1027.734375 0)"/>
       <use xlink:href="#DejaVuSans-2b" transform="translate(1091.357422 0)"/>
       <use xlink:href="#DejaVuSans-30" transform="translate(1175.146484 0)"/>
       <use xlink:href="#DejaVuSans-30" transform="translate(1238.769531 0)"/>
       <use xlink:href="#DejaVuSans-3a" transform="translate(1302.392578 0)"/>
       <use xlink:href="#DejaVuSans-30" transform="translate(1336.083984 0)"/>
       <use xlink:href="#DejaVuSans-30" transform="translate(1399.707031 0)"/>
      </g>
     </g>
    </g>
    <g id="xtick_8">
     <g id="line2d_8">
      <g>
       <use xlink:href="#mb8e991aa05" x="400.405934" y="217.830753" style="stroke: #000000; stroke-width: 0.8"/>
      </g>
     </g>
     <g id="text_8">
      <!-- 2025-11-09T13:21:01+00:00 -->
      <g transform="translate(295.461344 333.677689) rotate(-45) scale(0.1 -0.1)">
       <use xlink:href="#DejaVuSans-32"/>
       <use xlink:href="#DejaVuSans-30" transform="translate(63.623047 0)"/>
       <use xlink:href="#DejaVuSans-32" transform="translate(127.246094 0)"/>
       <use xlink:href="#DejaVuSans-35" transform="translate(190.869141 0)"/>
       <use xlink:href="#DejaVuSans-2d" transform="translate(254.492188 0)"/>
       <use xlink:href="#DejaVuSans-31" transform="translate(290.576172 0)"/>
       <use xlink:href="#DejaVuSans-31" transform="translate(354.199219 0)"/>
       <use xlink:href="#DejaVuSans-2d" transform="translate(417.822266 0)"/>
       <use xlink:href="#DejaVuSans-30" transform="translate(453.90625 0)"/>
       <use xlink:href="#DejaVuSans-39" transform="translate(517.529297 0)"/>
       <use xlink:href="#DejaVuSans-54" transform="translate(581.152344 0)"/>
       <use xlink:href="#DejaVuSans-31" transform="translate(642.236328 0)"/>
       <use xlink:href="#DejaVuSans-33" transform="translate(705.859375 0)"/>
       <use xlink:href="#DejaVuSans-3a" transform="translate(769.482422 0)"/>
       <use xlink:href="#DejaVuSans-32" transform="translate(803.173828 0)"/>
       <use xlink:href="#DejaVuSans-31" transform="translate(866.796875 0)"/>
       <use xlink:href="#DejaVuSans-3a" transform="translate(930.419922 0)"/>
       <use xlink:href="#DejaVuSans-30" transform="translate(964.111328 0)"/>
       <use xlink:href="#DejaVuSans-31" transform="translate(1027.734375 0)"/>
       <use xlink:href="#DejaVuSans-2b" transform="translate(1091.357422 0)"/>
       <use xlink:href="#DejaVuSans-30" transform="translate(1175.146484 0)"/>
       <use xlink:href="#DejaVuSans-30" transform="translate(1238.769531 0)"/>
       <use xlink:href="#DejaVuSans-3a" transform="translate(1302.392578 0)"/>
       <use xlink:href="#DejaVuSans-30" transform="translate(1336.083984 0)"/>
       <use xlink:href="#DejaVuSans-30" transform="translate(1399.707031 0)"/>
      </g>
     </g>
    </g>
   </g>
   <g id="matplotlib.axis_2">
    <g id="ytick_1">
     <g id="line2d_9">
      <path d="M 78.317 217.830753 
L 450 217.830753 
" clip-path="url(#pf2555bada8)" style="fill: none; stroke-dasharray: 0.8,1.32; stroke-dashoffset: 0; stroke: #b0b0b0; stroke-opacity: 0.5; stroke-width: 0.8"/>
     </g>
     <g id="line2d_10">
      <defs>
       <path id="m676f7b0d55" d="M 0 0 
L -3.5 0 
" style="stroke: #000000; stroke-width: 0.8"/>
      </defs>
      <g>
       <use xlink:href="#m676f7b0d55" x="78.317" y="217.830753" style="stroke: #000000; stroke-width: 0.8"/>
      </g>
     </g>
     <g id="text_9">
      <!-- 0 -->
      <g transform="translate(64.9545 221.629972) scale(0.1 -0.1)">
       <use xlink:href="#DejaVuSans-30"/>
      </g>
     </g>
    </g>
    <g id="ytick_2">
     <g id="line2d_11">
      <path d="M 78.317 182.866413 
L 450 182.866413 
" clip-path="url(#pf2555bada8)" style="fill: none; stroke-dasharray: 0.8,1.32; stroke-dashoffset: 0; stroke: #b0b0b0; stroke-opacity: 0.5; stroke-width: 0.8"/>
     </g>
     <g id="line2d_12">
      <g>
       <use xlink:href="#m676f7b0d55" x="78.317" y="182.866413" style="stroke: #000000; stroke-width: 0.8"/>
      </g>
     </g>
     <g id="text_10">
      <!-- 500 -->
      <g transform="translate(52.2295 186.665632) scale(0.1 -0.1)">
       <use xlink:href="#DejaVuSans-35"/>
       <use xlink:href="#DejaVuSans-30" transform="translate(63.623047 0)"/>
       <use xlink:href="#DejaVuSans-30" transform="translate(127.246094 0)"/>
      </g>
     </g>
    </g>
    <g id="ytick_3">
     <g id="line2d_13">
      <path d="M 78.317 147.902072 
L 450 147.902072 
" clip-path="url(#pf2555bada8)" style="fill: none; stroke-dasharray: 0.8,1.32; stroke-dashoffset: 0; stroke: #b0b0b0; stroke-opacity: 0.5; stroke-width: 0.8"/>
     </g>
     <g id="line2d_14">
      <g>
       <use xlink:href="#m676f7b0d55" x="78.317" y="147.902072" style="stroke: #000000; stroke-width: 0.8"/>
      </g>
     </g>
     <g id="text_11">
      <!-- 1000 -->
      <g transform="translate(45.867 151.701291) scale(0.1 -0.1)">
       <use xlink:href="#DejaVuSans-31"/>
       <use xlink:href="#DejaVuSans-30" transform="translate(63.623047 0)"/>
       <use xlink:href="#DejaVuSans-30" transform="translate(127.246094 0)"/>
       <use xlink:href="#DejaVuSans-30" transform="translate(190.869141 0)"/>
      </g>
     </g>
    </g>
    <g id="ytick_4">
     <g id="line2d_15">
      <path d="M 78.317 112.937732 
L 450 112.937732 
" clip-path="url(#pf2555bada8)" style="fill: none; stroke-dasharray: 0.8,1.32; stroke-dashoffset: 0; stroke: #b0b0b0; stroke-opacity: 0.5; stroke-width: 0.8"/>
     </g>
     <g id="line2d_16">
      <g>
       <use xlink:href="#m676f7b0d55" x="78.317" y="112.937732" style="stroke: #000000; stroke-width: 0.8"/>
      </g>
     </g>
     <g id="text_12">
      <!-- 1500 -->
      <g transform="translate(45.867 116.73695) scale(0.1 -0.1)">
       <use xlink:href="#DejaVuSans-31"/>
       <use xlink:href="#DejaVuSans-35" transform="translate(63.623047 0)"/>
       <use xlink:href="#DejaVuSans-30" transform="translate(127.246094 0)"/>
       <use xlink:href="#DejaVuSans-30" transform="translate(190.869141 0)"/>
      </g>
     </g>
    </g>
    <g id="ytick_5">
     <g id="line2d_17">
      <path d="M 78.317 77.973391 
L 450 77.973391 
" clip-path="url(#pf2555bada8)" style="fill: none; stroke-dasharray: 0.8,1.32; stroke-dashoffset: 0; stroke: #b0b0b0; stroke-opacity: 0.5; stroke-width: 0.8"/>
     </g>
     <g id="line2d_18">
      <g>
       <use xlink:href="#m676f7b0d55" x="78.317" y="77.973391" style="stroke: #000000; stroke-width: 0.8"/>
      </g>
     </g>
     <g id="text_13">
      <!-- 2000 -->
      <g transform="translate(45.867 81.77261) scale(0.1 -0.1)">
       <use xlink:href="#DejaVuSans-32"/>
       <use xlink:href="#DejaVuSans-30" transform="translate(63.623047 0)"/>
       <use xlink:href="#DejaVuSans-30" transform="translate(127.246094 0)"/>
       <use xlink:href="#DejaVuSans-30" transform="translate(190.869141 0)"/>
      </g>
     </g>
    </g>
    <g id="ytick_6">
     <g id="line2d_19">
      <path d="M 78.317 43.00905 
L 450 43.00905 
" clip-path="url(#pf2555bada8)" style="fill: none; stroke-dasharray: 0.8,1.32; stroke-dashoffset: 0; stroke: #b0b0b0; stroke-opacity: 0.5; stroke-width: 0.8"/>
     </g>
     <g id="line2d_20">
      <g>
       <use xlink:href="#m676f7b0d55" x="78.317" y="43.00905" style="stroke: #000000; stroke-width: 0.8"/>
      </g>
     </g>
     <g id="text_14">
      <!-- 2500 -->
      <g transform="translate(45.867 46.808269) scale(0.1 -0.1)">
       <use xlink:href="#DejaVuSans-32"/>
       <use xlink:href="#DejaVuSans-35" transform="translate(63.623047 0)"/>
       <use xlink:href="#DejaVuSans-30" transform="translate(127.246094 0)"/>
       <use xlink:href="#DejaVuSans-30" transform="translate(190.869141 0)"/>
      </g>
     </g>
    </g>
    <g id="text_15">
     <!-- Bytes -->
     <g transform="translate(39.787312 136.386627) rotate(-90) scale(0.1 -0.1)">
      <defs>
       <path id="DejaVuSans-42" d="M 1259 2228 
L 1259 519 
L 2272 519 
Q 2781 519 3026 730 
Q 3272 941 3272 1375 
Q 3272 1813 3026 2020 
Q 2781 2228 2272 2228 
L 1259 2228 
z
M 1259 4147 
L 1259 2741 
L 2194 2741 
Q 2656 2741 2882 2914 
Q 3109 3088 3109 3444 
Q 3109 3797 2882 3972 
Q 2656 4147 2194 4147 
L 1259 4147 
z
M 628 4666 
L 2241 4666 
Q 2963 4666 3353 4366 
Q 3744 4066 3744 3513 
Q 3744 3084 3544 2831 
Q 3344 2578 2956 2516 
Q 3422 2416 3680 2098 
Q 3938 1781 3938 1306 
Q 3938 681 3513 340 
Q 3088 0 2303 0 
L 628 0 
L 628 4666 
z
" transform="scale(0.015625)"/>
       <path id="DejaVuSans-79" d="M 2059 -325 
Q 1816 -950 1584 -1140 
Q 1353 -1331 966 -1331 
L 506 -1331 
L 506 -850 
L 844 -850 
Q 1081 -850 1212 -737 
Q 1344 -625 1503 -206 
L 1606 56 
L 191 3500 
L 800 3500 
L 1894 763 
L 2988 3500 
L 3597 3500 
L 2059 -325 
z
" transform="scale(0.015625)"/>
       <path id="DejaVuSans-74" d="M 1172 4494 
L 1172 3500 
L 2356 3500 
L 2356 3053 
L 1172 3053 
L 1172 1153 
Q 1172 725 1289 603 
Q 1406 481 1766 481 
L 2356 481 
L 2356 0 
L 1766 0 
Q 1100 0 847 248 
Q 594 497 594 1153 
L 594 3053 
L 172 3053 
L 172 3500 
L 594 3500 
L 594 4494 
L 1172 4494 
z
" transform="scale(0.015625)"/>
       <path id="DejaVuSans-65" d="M 3597 1894 
L 3597 1613 
L 953 1613 
Q 991 1019 1311 708 
Q 1631 397 2203 397 
Q 2534 397 2845 478 
Q 3156 559 3463 722 
L 3463 178 
Q 3153 47 2828 -22 
Q 2503 -91 2169 -91 
Q 1331 -91 842 396 
Q 353 884 353 1716 
Q 353 2575 817 3079 
Q 1281 3584 2069 3584 
Q 2775 3584 3186 3129 
Q 3597 2675 3597 1894 
z
M 3022 2063 
Q 3016 2534 2758 2815 
Q 2500 3097 2075 3097 
Q 1594 3097 1305 2825 
Q 1016 2553 972 2059 
L 3022 2063 
z
" transform="scale(0.015625)"/>
       <path id="DejaVuSans-73" d="M 2834 3397 
L 2834 2853 
Q 2591 2978 2328 3040 
Q 2066 3103 1784 3103 
Q 1356 3103 1142 2972 
Q 928 2841 928 2578 
Q 928 2378 1081 2264 
Q 1234 2150 1697 2047 
L 1894 2003 
Q 2506 1872 2764 1633 
Q 3022 1394 3022 966 
Q 3022 478 2636 193 
Q 2250 -91 1575 -91 
Q 1294 -91 989 -36 
Q 684 19 347 128 
L 347 722 
Q 666 556 975 473 
Q 1284 391 1588 391 
Q 1994 391 2212 530 
Q 2431 669 2431 922 
Q 2431 1156 2273 1281 
Q 2116 1406 1581 1522 
L 1381 1569 
Q 847 1681 609 1914 
Q 372 2147 372 2553 
Q 372 3047 722 3315 
Q 1072 3584 1716 3584 
Q 2034 3584 2315 3537 
Q 2597 3491 2834 3397 
z
" transform="scale(0.015625)"/>
      </defs>
      <use xlink:href="#DejaVuSans-42"/>
      <use xlink:href="#DejaVuSans-79" transform="translate(68.603516 0)"/>
      <use xlink:href="#DejaVuSans-74" transform="translate(127.783203 0)"/>
      <use xlink:href="#DejaVuSans-65" transform="translate(166.992188 0)"/>
      <use xlink:href="#DejaVuSans-73" transform="translate(228.515625 0)"/>
     </g>
    </g>
   </g>
   <g id="line2d_21">
    <path d="M 95.211682 32.659606 
L 106.111476 32.659606 
L 117.011271 32.659606 
L 127.911066 32.659606 
L 138.810861 32.659606 
L 149.710655 32.659606 
L 160.61045 32.659606 
L 171.510245 32.659606 
L 182.41004 32.659606 
L 193.309834 32.659606 
L 204.209629 32.659606 
L 215.109424 32.659606 
L 226.009218 32.659606 
L 236.909013 32.659606 
L 247.808808 32.659606 
L 258.708603 32.659606 
L 269.608397 32.659606 
L 280.508192 32.659606 
L 291.407987 32.659606 
L 302.307781 32.659606 
L 313.207576 32.659606 
L 324.107371 32.659606 
L 335.007166 32.659606 
L 345.90696 32.659606 
L 356.806755 32.659606 
L 367.70655 32.659606 
L 378.606345 32.659606 
L 389.506139 32.659606 
L 400.405934 32.659606 
L 411.305729 32.659606 
L 422.205523 32.659606 
L 433.105318 32.659606 
" clip-path="url(#pf2555bada8)" style="fill: none; stroke: #1f77b4; stroke-width: 1.5; stroke-linecap: square"/>
    <defs>
     <path id="m81142390a0" d="M 0 3 
C 0.795609 3 1.55874 2.683901 2.12132 2.12132 
C 2.683901 1.55874 3 0.795609 3 0 
C 3 -0.795609 2.683901 -1.55874 2.12132 -2.12132 
C 1.55874 -2.683901 0.795609 -3 0 -3 
C -0.795609 -3 -1.55874 -2.683901 -2.12132 -2.12132 
C -2.683901 -1.55874 -3 -0.795609 -3 0 
C -3 0.795609 -2.683901 1.55874 -2.12132 2.12132 
C -1.55874 2.683901 -0.795609 3 0 3 
z
" style="stroke: #1f77b4"/>
    </defs>
    <g clip-path="url(#pf2555bada8)">
     <use xlink:href="#m81142390a0" x="95.211682" y="32.659606" style="fill: #1f77b4; stroke: #1f77b4"/>
     <use xlink:href="#m81142390a0" x="106.111476" y="32.659606" style="fill: #1f77b4; stroke: #1f77b4"/>
     <use xlink:href="#m81142390a0" x="117.011271" y="32.659606" style="fill: #1f77b4; stroke: #1f77b4"/>
     <use xlink:href="#m81142390a0" x="127.911066" y="32.659606" style="fill: #1f77b4; stroke: #1f77b4"/>
     <use xlink:href="#m81142390a0" x="138.810861" y="32.659606" style="fill: #1f77b4; stroke: #1f77b4"/>
     <use xlink:href="#m81142390a0" x="149.710655" y="32.659606" style="fill: #1f77b4; stroke: #1f77b4"/>
     <use xlink:href="#m81142390a0" x="160.61045" y="32.659606" style="fill: #1f77b4; stroke: #1f77b4"/>
     <use xlink:href="#m81142390a0" x="171.510245" y="32.659606" style="fill: #1f77b4; stroke: #1f77b4"/>
     <use xlink:href="#m81142390a0" x="182.41004" y="32.659606" style="fill: #1f77b4; stroke: #1f77b4"/>
     <use xlink:href="#m81142390a0" x="193.309834" y="32.659606" style="fill: #1f77b4; stroke: #1f77b4"/>
     <use xlink:href="#m81142390a0" x="204.209629" y="32.659606" style="fill: #1f77b4; stroke: #1f77b4"/>
     <use xlink:href="#m81142390a0" x="215.109424" y="32.659606" style="fill: #1f77b4; stroke: #1f77b4"/>
     <use xlink:href="#m81142390a0" x="226.009218" y="32.659606" style="fill: #1f77b4; stroke: #1f77b4"/>
     <use xlink:href="#m81142390a0" x="236.909013" y="32.659606" style="fill: #1f77b4; stroke: #1f77b4"/>
     <use xlink:href="#m81142390a0" x="247.808808" y="32.659606" style="fill: #1f77b4; stroke: #1f77b4"/>
     <use xlink:href="#m81142390a0" x="258.708603" y="32.659606" style="fill: #1f77b4; stroke: #1f77b4"/>
     <use xlink:href="#m81142390a0" x="269.608397" y="32.659606" style="fill: #1f77b4; stroke: #1f77b4"/>
     <use xlink:href="#m81142390a0" x="280.508192" y="32.659606" style="fill: #1f77b4; stroke: #1f77b4"/>
     <use xlink:href="#m81142390a0" x="291.407987" y="32.659606" style="fill: #1f77b4; stroke: #1f77b4"/>
     <use xlink:href="#m81142390a0" x="302.307781" y="32.659606" style="fill: #1f77b4; stroke: #1f77b4"/>
     <use xlink:href="#m81142390a0" x="313.207576" y="32.659606" style="fill: #1f77b4; stroke: #1f77b4"/>
     <use xlink:href="#m81142390a0" x="324.107371" y="32.659606" style="fill: #1f77b4; stroke: #1f77b4"/>
     <use xlink:href="#m81142390a0" x="335.007166" y="32.659606" style="fill: #1f77b4; stroke: #1f77b4"/>
     <use xlink:href="#m81142390a0" x="345.90696" y="32.659606" style="fill: #1f77b4; stroke: #1f77b4"/>
     <use xlink:href="#m81142390a0" x="356.806755" y="32.659606" style="fill: #1f77b4; stroke: #1f77b4"/>
     <use xlink:href="#m81142390a0" x="367.70655" y="32.659606" style="fill: #1f77b4; stroke: #1f77b4"/>
     <use xlink:href="#m81142390a0" x="378.606345" y="32.659606" style="fill: #1f77b4; stroke: #1f77b4"/>
     <use xlink:href="#m81142390a0" x="389.506139" y="32.659606" style="fill: #1f77b4; stroke: #1f77b4"/>
     <use xlink:href="#m81142390a0" x="400.405934" y="32.659606" style="fill: #1f77b4; stroke: #1f77b4"/>
     <use xlink:href="#m81142390a0" x="411.305729" y="32.659606" style="fill: #1f77b4; stroke: #1f77b4"/>
     <use xlink:href="#m81142390a0" x="422.205523" y="32.659606" style="fill: #1f77b4; stroke: #1f77b4"/>
     <use xlink:href="#m81142390a0" x="433.105318" y="32.659606" style="fill: #1f77b4; stroke: #1f77b4"/>
    </g>
   </g>
   <g id="line2d_22">
    <path d="M 95.211682 96.084919 
L 106.111476 96.084919 
L 117.011271 96.084919 
L 127.911066 96.084919 
L 138.810861 96.084919 
L 149.710655 96.084919 
L 160.61045 96.084919 
L 171.510245 96.084919 
L 182.41004 96.084919 
L 193.309834 96.084919 
L 204.209629 96.084919 
L 215.109424 96.084919 
L 226.009218 96.084919 
L 236.909013 96.084919 
L 247.808808 96.084919 
L 258.708603 96.084919 
L 269.608397 96.084919 
L 280.508192 96.084919 
L 291.407987 96.084919 
L 302.307781 96.084919 
L 313.207576 96.084919 
L 324.107371 96.084919 
L 335.007166 96.084919 
L 345.90696 96.084919 
L 356.806755 96.084919 
L 367.70655 96.084919 
L 378.606345 96.084919 
L 389.506139 96.084919 
L 400.405934 96.084919 
L 411.305729 96.084919 
L 422.205523 96.084919 
L 433.105318 96.084919 
" clip-path="url(#pf2555bada8)" style="fill: none; stroke: #ff7f0e; stroke-width: 1.5; stroke-linecap: square"/>
    <defs>
     <path id="m66270814dc" d="M 0 3 
C 0.795609 3 1.55874 2.683901 2.12132 2.12132 
C 2.683901 1.55874 3 0.795609 3 0 
C 3 -0.795609 2.683901 -1.55874 2.12132 -2.12132 
C 1.55874 -2.683901 0.795609 -3 0 -3 
C -0.795609 -3 -1.55874 -2.683901 -2.12132 -2.12132 
C -2.683901 -1.55874 -3 -0.795609 -3 0 
C -3 0.795609 -2.683901 1.55874 -2.12132 2.12132 
C -1.55874 2.683901 -0.795609 3 0 3 
z
" style="stroke: #ff7f0e"/>
    </defs>
    <g clip-path="url(#pf2555bada8)">
     <use xlink:href="#m66270814dc" x="95.211682" y="96.084919" style="fill: #ff7f0e; stroke: #ff7f0e"/>
     <use xlink:href="#m66270814dc" x="106.111476" y="96.084919" style="fill: #ff7f0e; stroke: #ff7f0e"/>
     <use xlink:href="#m66270814dc" x="117.011271" y="96.084919" style="fill: #ff7f0e; stroke: #ff7f0e"/>
     <use xlink:href="#m66270814dc" x="127.911066" y="96.084919" style="fill: #ff7f0e; stroke: #ff7f0e"/>
     <use xlink:href="#m66270814dc" x="138.810861" y="96.084919" style="fill: #ff7f0e; stroke: #ff7f0e"/>
     <use xlink:href="#m66270814dc" x="149.710655" y="96.084919" style="fill: #ff7f0e; stroke: #ff7f0e"/>
     <use xlink:href="#m66270814dc" x="160.61045" y="96.084919" style="fill: #ff7f0e; stroke: #ff7f0e"/>
     <use xlink:href="#m66270814dc" x="171.510245" y="96.084919" style="fill: #ff7f0e; stroke: #ff7f0e"/>
     <use xlink:href="#m66270814dc" x="182.41004" y="96.084919" style="fill: #ff7f0e; stroke: #ff7f0e"/>
     <use xlink:href="#m66270814dc" x="193.309834" y="96.084919" style="fill: #ff7f0e; stroke: #ff7f0e"/>
     <use xlink:href="#m66270814dc" x="204.209629" y="96.084919" style="fill: #ff7f0e; stroke: #ff7f0e"/>
     <use xlink:href="#m66270814dc" x="215.109424" y="96.084919" style="fill: #ff7f0e; stroke: #ff7f0e"/>
     <use xlink:href="#m66270814dc" x="226.009218" y="96.084919" style="fill: #ff7f0e; stroke: #ff7f0e"/>
     <use xlink:href="#m66270814dc" x="236.909013" y="96.084919" style="fill: #ff7f0e; stroke: #ff7f0e"/>
     <use xlink:href="#m66270814dc" x="247.808808" y="96.084919" style="fill: #ff7f0e; stroke: #ff7f0e"/>
     <use xlink:href="#m66270814dc" x="258.708603" y="96.084919" style="fill: #ff7f0e; stroke: #ff7f0e"/>
     <use xlink:href="#m66270814dc" x="269.608397" y="96.084919" style="fill: #ff7f0e; stroke: #ff7f0e"/>
     <use xlink:href="#m66270814dc" x="280.508192" y="96.084919" style="fill: #ff7f0e; stroke: #ff7f0e"/>
     <use xlink:href="#m66270814dc" x="291.407987" y="96.084919" style="fill: #ff7f0e; stroke: #ff7f0e"/>
     <use xlink:href="#m66270814dc" x="302.307781" y="96.084919" style="fill: #ff7f0e; stroke: #ff7f0e"/>
     <use xlink:href="#m66270814dc" x="313.207576" y="96.084919" style="fill: #ff7f0e; stroke: #ff7f0e"/>
     <use xlink:href="#m66270814dc" x="324.107371" y="96.084919" style="fill: #ff7f0e; stroke: #ff7f0e"/>
     <use xlink:href="#m66270814dc" x="335.007166" y="96.084919" style="fill: #ff7f0e; stroke: #ff7f0e"/>
     <use xlink:href="#m66270814dc" x="345.90696" y="96.084919" style="fill: #ff7f0e; stroke: #ff7f0e"/>
     <use xlink:href="#m66270814dc" x="356.806755" y="96.084919" style="fill: #ff7f0e; stroke: #ff7f0e"/>
     <use xlink:href="#m66270814dc" x="367.70655" y="96.084919" style="fill: #ff7f0e; stroke: #ff7f0e"/>
     <use xlink:href="#m66270814dc" x="378.606345" y="96.084919" style="fill: #ff7f0e; stroke: #ff7f0e"/>
     <use xlink:href="#m66270814dc" x="389.506139" y="96.084919" style="fill: #ff7f0e; stroke: #ff7f0e"/>
     <use xlink:href="#m66270814dc" x="400.405934" y="96.084919" style="fill: #ff7f0e; stroke: #ff7f0e"/>
     <use xlink:href="#m66270814dc" x="411.305729" y="96.084919" style="fill: #ff7f0e; stroke: #ff7f0e"/>
     <use xlink:href="#m66270814dc" x="422.205523" y="96.084919" style="fill: #ff7f0e; stroke: #ff7f0e"/>
     <use xlink:href="#m66270814dc" x="433.105318" y="96.084919" style="fill: #ff7f0e; stroke: #ff7f0e"/>
    </g>
   </g>
   <g id="line2d_23">
    <path d="M 95.211682 128.531827 
L 106.111476 128.531827 
L 117.011271 128.531827 
L 127.911066 128.531827 
L 138.810861 128.531827 
L 149.710655 128.531827 
L 160.61045 128.531827 
L 171.510245 128.531827 
L 182.41004 128.531827 
L 193.309834 128.531827 
L 204.209629 128.531827 
L 215.109424 128.531827 
L 226.009218 128.531827 
L 236.909013 128.531827 
L 247.808808 128.531827 
L 258.708603 128.531827 
L 269.608397 128.531827 
L 280.508192 128.531827 
L 291.407987 128.531827 
L 302.307781 128.531827 
L 313.207576 128.531827 
L 324.107371 128.531827 
L 335.007166 128.531827 
L 345.90696 128.531827 
L 356.806755 128.531827 
L 367.70655 128.531827 
L 378.606345 128.531827 
L 389.506139 128.531827 
L 400.405934 128.531827 
L 411.305729 128.531827 
L 422.205523 128.531827 
L 433.105318 128.531827 
" clip-path="url(#pf2555bada8)" style="fill: none; stroke: #2ca02c; stroke-width: 1.5; stroke-linecap: square"/>
    <defs>
     <path id="mf7137f5b79" d="M 0 3 
C 0.795609 3 1.55874 2.683901 2.12132 2.12132 
C 2.683901 1.55874 3 0.795609 3 0 
C 3 -0.795609 2.683901 -1.55874 2.12132 -2.12132 
C 1.55874 -2.683901 0.795609 -3 0 -3 
C -0.795609 -3 -1.55874 -2.683901 -2.12132 -2.12132 
C -2.683901 -1.55874 -3 -0.795609 -3 0 
C -3 0.795609 -2.683901 1.55874 -2.12132 2.12132 
C -1.55874 2.683901 -0.795609 3 0 3 
z
" style="stroke: #2ca02c"/>
    </defs>
    <g clip-path="url(#pf2555bada8)">
     <use xlink:href="#mf7137f5b79" x="95.211682" y="128.531827" style="fill: #2ca02c; stroke: #2ca02c"/>
     <use xlink:href="#mf7137f5b79" x="106.111476" y="128.531827" style="fill: #2ca02c; stroke: #2ca02c"/>
     <use xlink:href="#mf7137f5b79" x="117.011271" y="128.531827" style="fill: #2ca02c; stroke: #2ca02c"/>
     <use xlink:href="#mf7137f5b79" x="127.911066" y="128.531827" style="fill: #2ca02c; stroke: #2ca02c"/>
     <use xlink:href="#mf7137f5b79" x="138.810861" y="128.531827" style="fill: #2ca02c; stroke: #2ca02c"/>
     <use xlink:href="#mf7137f5b79" x="149.710655" y="128.531827" style="fill: #2ca02c; stroke: #2ca02c"/>
     <use xlink:href="#mf7137f5b79" x="160.61045" y="128.531827" style="fill: #2ca02c; stroke: #2ca02c"/>
     <use xlink:href="#mf7137f5b79" x="171.510245" y="128.531827" style="fill: #2ca02c; stroke: #2ca02c"/>
     <use xlink:href="#mf7137f5b79" x="182.41004" y="128.531827" style="fill: #2ca02c; stroke: #2ca02c"/>
     <use xlink:href="#mf7137f5b79" x="193.309834" y="128.531827" style="fill: #2ca02c; stroke: #2ca02c"/>
     <use xlink:href="#mf7137f5b79" x="204.209629" y="128.531827" style="fill: #2ca02c; stroke: #2ca02c"/>
     <use xlink:href="#mf7137f5b79" x="215.109424" y="128.531827" style="fill: #2ca02c; stroke: #2ca02c"/>
     <use xlink:href="#mf7137f5b79" x="226.009218" y="128.531827" style="fill: #2ca02c; stroke: #2ca02c"/>
     <use xlink:href="#mf7137f5b79" x="236.909013" y="128.531827" style="fill: #2ca02c; stroke: #2ca02c"/>
     <use xlink:href="#mf7137f5b79" x="247.808808" y="128.531827" style="fill: #2ca02c; stroke: #2ca02c"/>
     <use xlink:href="#mf7137f5b79" x="258.708603" y="128.531827" style="fill: #2ca02c; stroke: #2ca02c"/>
     <use xlink:href="#mf7137f5b79" x="269.608397" y="128.531827" style="fill: #2ca02c; stroke: #2ca02c"/>
     <use xlink:href="#mf7137f5b79" x="280.508192" y="128.531827" style="fill: #2ca02c; stroke: #2ca02c"/>
     <use xlink:href="#mf7137f5b79" x="291.407987" y="128.531827" style="fill: #2ca02c; stroke: #2ca02c"/>
     <use xlink:href="#mf7137f5b79" x="302.307781" y="128.531827" style="fill: #2ca02c; stroke: #2ca02c"/>
     <use xlink:href="#mf7137f5b79" x="313.207576" y="128.531827" style="fill: #2ca02c; stroke: #2ca02c"/>
     <use xlink:href="#mf7137f5b79" x="324.107371" y="128.531827" style="fill: #2ca02c; stroke: #2ca02c"/>
     <use xlink:href="#mf7137f5b79" x="335.007166" y="128.531827" style="fill: #2ca02c; stroke: #2ca02c"/>
     <use xlink:href="#mf7137f5b79" x="345.90696" y="128.531827" style="fill: #2ca02c; stroke: #2ca02c"/>
     <use xlink:href="#mf7137f5b79" x="356.806755" y="128.531827" style="fill: #2ca02c; stroke: #2ca02c"/>
     <use xlink:href="#mf7137f5b79" x="367.70655" y="128.531827" style="fill: #2ca02c; stroke: #2ca02c"/>
     <use xlink:href="#mf7137f5b79" x="378.606345" y="128.531827" style="fill: #2ca02c; stroke: #2ca02c"/>
     <use xlink:href="#mf7137f5b79" x="389.506139" y="128.531827" style="fill: #2ca02c; stroke: #2ca02c"/>
     <use xlink:href="#mf7137f5b79" x="400.405934" y="128.531827" style="fill: #2ca02c; stroke: #2ca02c"/>
     <use xlink:href="#mf7137f5b79" x="411.305729" y="128.531827" style="fill: #2ca02c; stroke: #2ca02c"/>
     <use xlink:href="#mf7137f5b79" x="422.205523" y="128.531827" style="fill: #2ca02c; stroke: #2ca02c"/>
     <use xlink:href="#mf7137f5b79" x="433.105318" y="128.531827" style="fill: #2ca02c; stroke: #2ca02c"/>
    </g>
   </g>
   <g id="line2d_24">
    <path d="M 95.211682 148.251716 
L 106.111476 148.251716 
L 117.011271 148.251716 
L 127.911066 148.251716 
L 138.810861 148.251716 
L 149.710655 148.251716 
L 160.61045 148.251716 
L 171.510245 148.251716 
L 182.41004 148.251716 
L 193.309834 148.251716 
L 204.209629 148.251716 
L 215.109424 148.251716 
L 226.009218 148.251716 
L 236.909013 148.251716 
L 247.808808 148.251716 
L 258.708603 148.251716 
L 269.608397 148.251716 
L 280.508192 148.251716 
L 291.407987 148.251716 
L 302.307781 148.251716 
L 313.207576 148.251716 
L 324.107371 148.251716 
L 335.007166 148.251716 
L 345.90696 148.251716 
L 356.806755 148.251716 
L 367.70655 148.251716 
L 378.606345 148.251716 
L 389.506139 148.251716 
L 400.405934 148.251716 
L 411.305729 148.251716 
L 422.205523 148.251716 
L 433.105318 148.251716 
" clip-path="url(#pf2555bada8)" style="fill: none; stroke: #d62728; stroke-width: 1.5; stroke-linecap: square"/>
    <defs>
     <path id="m1daa34c10a" d="M 0 3 
C 0.795609 3 1.55874 2.683901 2.12132 2.12132 
C 2.683901 1.55874 3 0.795609 3 0 
C 3 -0.795609 2.683901 -1.55874 2.12132 -2.12132 
C 1.55874 -2.683901 0.795609 -3 0 -3 
C -0.795609 -3 -1.55874 -2.683901 -2.12132 -2.12132 
C -2.683901 -1.55874 -3 -0.795609 -3 0 
C -3 0.795609 -2.683901 1.55874 -2.12132 2.12132 
C -1.55874 2.683901 -0.795609 3 0 3 
z
" style="stroke: #d62728"/>
    </defs>
    <g clip-path="url(#pf2555bada8)">
     <use xlink:href="#m1daa34c10a" x="95.211682" y="148.251716" style="fill: #d62728; stroke: #d62728"/>
     <use xlink:href="#m1daa34c10a" x="106.111476" y="148.251716" style="fill: #d62728; stroke: #d62728"/>
     <use xlink:href="#m1daa34c10a" x="117.011271" y="148.251716" style="fill: #d62728; stroke: #d62728"/>
     <use xlink:href="#m1daa34c10a" x="127.911066" y="148.251716" style="fill: #d62728; stroke: #d62728"/>
     <use xlink:href="#m1daa34c10a" x="138.810861" y="148.251716" style="fill: #d62728; stroke: #d62728"/>
     <use xlink:href="#m1daa34c10a" x="149.710655" y="148.251716" style="fill: #d62728; stroke: #d62728"/>
     <use xlink:href="#m1daa34c10a" x="160.61045" y="148.251716" style="fill: #d62728; stroke: #d62728"/>
     <use xlink:href="#m1daa34c10a" x="171.510245" y="148.251716" style="fill: #d62728; stroke: #d62728"/>
     <use xlink:href="#m1daa34c10a" x="182.41004" y="148.251716" style="fill: #d62728; stroke: #d62728"/>
     <use xlink:href="#m1daa34c10a" x="193.309834" y="148.251716" style="fill: #d62728; stroke: #d62728"/>
     <use xlink:href="#m1daa34c10a" x="204.209629" y="148.251716" style="fill: #d62728; stroke: #d62728"/>
     <use xlink:href="#m1daa34c10a" x="215.109424" y="148.251716" style="fill: #d62728; stroke: #d62728"/>
     <use xlink:href="#m1daa34c10a" x="226.009218" y="148.251716" style="fill: #d62728; stroke: #d62728"/>
     <use xlink:href="#m1daa34c10a" x="236.909013" y="148.251716" style="fill: #d62728; stroke: #d62728"/>
     <use xlink:href="#m1daa34c10a" x="247.808808" y="148.251716" style="fill: #d62728; stroke: #d62728"/>
     <use xlink:href="#m1daa34c10a" x="258.708603" y="148.251716" style="fill: #d62728; stroke: #d62728"/>
     <use xlink:href="#m1daa34c10a" x="269.608397" y="148.251716" style="fill: #d62728; stroke: #d62728"/>
     <use xlink:href="#m1daa34c10a" x="280.508192" y="148.251716" style="fill: #d62728; stroke: #d62728"/>
     <use xlink:href="#m1daa34c10a" x="291.407987" y="148.251716" style="fill: #d62728; stroke: #d62728"/>
     <use xlink:href="#m1daa34c10a" x="302.307781" y="148.251716" style="fill: #d62728; stroke: #d62728"/>
     <use xlink:href="#m1daa34c10a" x="313.207576" y="148.251716" style="fill: #d62728; stroke: #d62728"/>
     <use xlink:href="#m1daa34c10a" x="324.107371" y="148.251716" style="fill: #d62728; stroke: #d62728"/>
     <use xlink:href="#m1daa34c10a" x="335.007166" y="148.251716" style="fill: #d62728; stroke: #d62728"/>
     <use xlink:href="#m1daa34c10a" x="345.90696" y="148.251716" style="fill: #d62728; stroke: #d62728"/>
     <use xlink:href="#m1daa34c10a" x="356.806755" y="148.251716" style="fill: #d62728; stroke: #d62728"/>
     <use xlink:href="#m1daa34c10a" x="367.70655" y="148.251716" style="fill: #d62728; stroke: #d62728"/>
     <use xlink:href="#m1daa34c10a" x="378.606345" y="148.251716" style="fill: #d62728; stroke: #d62728"/>
     <use xlink:href="#m1daa34c10a" x="389.506139" y="148.251716" style="fill: #d62728; stroke: #d62728"/>
     <use xlink:href="#m1daa34c10a" x="400.405934" y="148.251716" style="fill: #d62728; stroke: #d62728"/>
     <use xlink:href="#m1daa34c10a" x="411.305729" y="148.251716" style="fill: #d62728; stroke: #d62728"/>
     <use xlink:href="#m1daa34c10a" x="422.205523" y="148.251716" style="fill: #d62728; stroke: #d62728"/>
     <use xlink:href="#m1daa34c10a" x="433.105318" y="148.251716" style="fill: #d62728; stroke: #d62728"/>
    </g>
   </g>
   <g id="patch_3">
    <path d="M 78.317 217.830753 
L 78.317 26.88 
" style="fill: none; stroke: #000000; stroke-width: 0.8; stroke-linejoin: miter; stroke-linecap: square"/>
   </g>
   <g id="patch_4">
    <path d="M 450 217.830753 
L 450 26.88 
" style="fill: none; stroke: #000000; stroke-width: 0.8; stroke-linejoin: miter; stroke-linecap: square"/>
   </g>
   <g id="patch_5">
    <path d="M 78.317 217.830753 
L 450 217.830753 
" style="fill: none; stroke: #000000; stroke-width: 0.8; stroke-linejoin: miter; stroke-linecap: square"/>
   </g>
   <g id="patch_6">
    <path d="M 78.317 26.88 
L 450 26.88 
" style="fill: none; stroke: #000000; stroke-width: 0.8; stroke-linejoin: miter; stroke-linecap: square"/>
   </g>
   <g id="text_16">
    <!-- Increase of .text memory by enabling profiles -->
    <g transform="translate(127.364125 20.88) scale(0.12 -0.12)">
     <defs>
      <path id="DejaVuSans-49" d="M 628 4666 
L 1259 4666 
L 1259 0 
L 628 0 
L 628 4666 
z
" transform="scale(0.015625)"/>
      <path id="DejaVuSans-6e" d="M 3513 2113 
L 3513 0 
L 2938 0 
L 2938 2094 
Q 2938 2591 2744 2837 
Q 2550 3084 2163 3084 
Q 1697 3084 1428 2787 
Q 1159 2491 1159 1978 
L 1159 0 
L 581 0 
L 581 3500 
L 1159 3500 
L 1159 2956 
Q 1366 3272 1645 3428 
Q 1925 3584 2291 3584 
Q 2894 3584 3203 3211 
Q 3513 2838 3513 2113 
z
" transform="scale(0.015625)"/>
      <path id="DejaVuSans-63" d="M 3122 3366 
L 3122 2828 
Q 2878 2963 2633 3030 
Q 2388 3097 2138 3097 
Q 1578 3097 1268 2742 
Q 959 2388 959 1747 
Q 959 1106 1268 751 
Q 1578 397 2138 397 
Q 2388 397 2633 464 
Q 2878 531 3122 666 
L 3122 134 
Q 2881 22 2623 -34 
Q 2366 -91 2075 -91 
Q 1284 -91 818 406 
Q 353 903 353 1747 
Q 353 2603 823 3093 
Q 1294 3584 2113 3584 
Q 2378 3584 2631 3529 
Q 2884 3475 3122 3366 
z
" transform="scale(0.015625)"/>
      <path id="DejaVuSans-72" d="M 2631 2963 
Q 2534 3019 2420 3045 
Q 2306 3072 2169 3072 
Q 1681 3072 1420 2755 
Q 1159 2438 1159 1844 
L 1159 0 
L 581 0 
L 581 3500 
L 1159 3500 
L 1159 2956 
Q 1341 3275 1631 3429 
Q 1922 3584 2338 3584 
Q 2397 3584 2469 3576 
Q 2541 3569 2628 3553 
L 2631 2963 
z
" transform="scale(0.015625)"/>
      <path id="DejaVuSans-61" d="M 2194 1759 
Q 1497 1759 1228 1600 
Q 959 1441 959 1056 
Q 959 750 1161 570 
Q 1363 391 1709 391 
Q 2188 391 2477 730 
Q 2766 1069 2766 1631 
L 2766 1759 
L 2194 1759 
z
M 3341 1997 
L 3341 0 
L 2766 0 
L 2766 531 
Q 2569 213 2275 61 
Q 1981 -91 1556 -91 
Q 1019 -91 701 211 
Q 384 513 384 1019 
Q 384 1609 779 1909 
Q 1175 2209 1959 2209 
L 2766 2209 
L 2766 2266 
Q 2766 2663 2505 2880 
Q 2244 3097 1772 3097 
Q 1472 3097 1187 3025 
Q 903 2953 641 2809 
L 641 3341 
Q 956 3463 1253 3523 
Q 1550 3584 1831 3584 
Q 2591 3584 2966 3190 
Q 3341 2797 3341 1997 
z
" transform="scale(0.015625)"/>
      <path id="DejaVuSans-20" transform="scale(0.015625)"/>
      <path id="DejaVuSans-6f" d="M 1959 3097 
Q 1497 3097 1228 2736 
Q 959 2375 959 1747 
Q 959 1119 1226 758 
Q 1494 397 1959 397 
Q 2419 397 2687 759 
Q 2956 1122 2956 1747 
Q 2956 2369 2687 2733 
Q 2419 3097 1959 3097 
z
M 1959 3584 
Q 2709 3584 3137 3096 
Q 3566 2609 3566 1747 
Q 3566 888 3137 398 
Q 2709 -91 1959 -91 
Q 1206 -91 779 398 
Q 353 888 353 1747 
Q 353 2609 779 3096 
Q 1206 3584 1959 3584 
z
" transform="scale(0.015625)"/>
      <path id="DejaVuSans-66" d="M 2375 4863 
L 2375 4384 
L 1825 4384 
Q 1516 4384 1395 4259 
Q 1275 4134 1275 3809 
L 1275 3500 
L 2222 3500 
L 2222 3053 
L 1275 3053 
L 1275 0 
L 697 0 
L 697 3053 
L 147 3053 
L 147 3500 
L 697 3500 
L 697 3744 
Q 697 4328 969 4595 
Q 1241 4863 1831 4863 
L 2375 4863 
z
" transform="scale(0.015625)"/>
      <path id="DejaVuSans-2e" d="M 684 794 
L 1344 794 
L 1344 0 
L 684 0 
L 684 794 
z
" transform="scale(0.015625)"/>
      <path id="DejaVuSans-78" d="M 3513 3500 
L 2247 1797 
L 3578 0 
L 2900 0 
L 1881 1375 
L 863 0 
L 184 0 
L 1544 1831 
L 300 3500 
L 978 3500 
L 1906 2253 
L 2834 3500 
L 3513 3500 
z
" transform="scale(0.015625)"/>
      <path id="DejaVuSans-6d" d="M 3328 2828 
Q 3544 3216 3844 3400 
Q 4144 3584 4550 3584 
Q 5097 3584 5394 3201 
Q 5691 2819 5691 2113 
L 5691 0 
L 5113 0 
L 5113 2094 
Q 5113 2597 4934 2840 
Q 4756 3084 4391 3084 
Q 3944 3084 3684 2787 
Q 3425 2491 3425 1978 
L 3425 0 
L 2847 0 
L 2847 2094 
Q 2847 2600 2669 2842 
Q 2491 3084 2119 3084 
Q 1678 3084 1418 2786 
Q 1159 2488 1159 1978 
L 1159 0 
L 581 0 
L 581 3500 
L 1159 3500 
L 1159 2956 
Q 1356 3278 1631 3431 
Q 1906 3584 2284 3584 
Q 2666 3584 2933 3390 
Q 3200 3197 3328 2828 
z
" transform="scale(0.015625)"/>
      <path id="DejaVuSans-62" d="M 3116 1747 
Q 3116 2381 2855 2742 
Q 2594 3103 2138 3103 
Q 1681 3103 1420 2742 
Q 1159 2381 1159 1747 
Q 1159 1113 1420 752 
Q 1681 391 2138 391 
Q 2594 391 2855 752 
Q 3116 1113 3116 1747 
z
M 1159 2969 
Q 1341 3281 1617 3432 
Q 1894 3584 2278 3584 
Q 2916 3584 3314 3078 
Q 3713 2572 3713 1747 
Q 3713 922 3314 415 
Q 2916 -91 2278 -91 
Q 1894 -91 1617 61 
Q 1341 213 1159 525 
L 1159 0 
L 581 0 
L 581 4863 
L 1159 4863 
L 1159 2969 
z
" transform="scale(0.015625)"/>
      <path id="DejaVuSans-6c" d="M 603 4863 
L 1178 4863 
L 1178 0 
L 603 0 
L 603 4863 
z
" transform="scale(0.015625)"/>
      <path id="DejaVuSans-69" d="M 603 3500 
L 1178 3500 
L 1178 0 
L 603 0 
L 603 3500 
z
M 603 4863 
L 1178 4863 
L 1178 4134 
L 603 4134 
L 603 4863 
z
" transform="scale(0.015625)"/>
      <path id="DejaVuSans-67" d="M 2906 1791 
Q 2906 2416 2648 2759 
Q 2391 3103 1925 3103 
Q 1463 3103 1205 2759 
Q 947 2416 947 1791 
Q 947 1169 1205 825 
Q 1463 481 1925 481 
Q 2391 481 2648 825 
Q 2906 1169 2906 1791 
z
M 3481 434 
Q 3481 -459 3084 -895 
Q 2688 -1331 1869 -1331 
Q 1566 -1331 1297 -1286 
Q 1028 -1241 775 -1147 
L 775 -588 
Q 1028 -725 1275 -790 
Q 1522 -856 1778 -856 
Q 2344 -856 2625 -561 
Q 2906 -266 2906 331 
L 2906 616 
Q 2728 306 2450 153 
Q 2172 0 1784 0 
Q 1141 0 747 490 
Q 353 981 353 1791 
Q 353 2603 747 3093 
Q 1141 3584 1784 3584 
Q 2172 3584 2450 3431 
Q 2728 3278 2906 2969 
L 2906 3500 
L 3481 3500 
L 3481 434 
z
" transform="scale(0.015625)"/>
      <path id="DejaVuSans-70" d="M 1159 525 
L 1159 -1331 
L 581 -1331 
L 581 3500 
L 1159 3500 
L 1159 2969 
Q 1341 3281 1617 3432 
Q 1894 3584 2278 3584 
Q 2916 3584 3314 3078 
Q 3713 2572 3713 1747 
Q 3713 922 3314 415 
Q 2916 -91 2278 -91 
Q 1894 -91 1617 61 
Q 1341 213 1159 525 
z
M 3116 1747 
Q 3116 2381 2855 2742 
Q 2594 3103 2138 3103 
Q 1681 3103 1420 2742 
Q 1159 2381 1159 1747 
Q 1159 1113 1420 752 
Q 1681 391 2138 391 
Q 2594 391 2855 752 
Q 3116 1113 3116 1747 
z
" transform="scale(0.015625)"/>
     </defs>
     <use xlink:href="#DejaVuSans-49"/>
     <use xlink:href="#DejaVuSans-6e" transform="translate(29.492188 0)"/>
     <use xlink:href="#DejaVuSans-63" transform="translate(92.871094 0)"/>
     <use xlink:href="#DejaVuSans-72" transform="translate(147.851562 0)"/>
     <use xlink:href="#DejaVuSans-65" transform="translate(186.714844 0)"/>
     <use xlink:href="#DejaVuSans-61" transform="translate(248.238281 0)"/>
     <use xlink:href="#DejaVuSans-73" transform="translate(309.517578 0)"/>
     <use xlink:href="#DejaVuSans-65" transform="translate(361.617188 0)"/>
     <use xlink:href="#DejaVuSans-20" transform="translate(423.140625 0)"/>
     <use xlink:href="#DejaVuSans-6f" transform="translate(454.927734 0)"/>
     <use xlink:href="#DejaVuSans-66" transform="translate(516.109375 0)"/>
     <use xlink:href="#DejaVuSans-20" transform="translate(551.314453 0)"/>
     <use xlink:href="#DejaVuSans-2e" transform="translate(583.101562 0)"/>
     <use xlink:href="#DejaVuSans-74" transform="translate(614.888672 0)"/>
     <use xlink:href="#DejaVuSans-65" transform="translate(654.097656 0)"/>
     <use xlink:href="#DejaVuSans-78" transform="translate(713.871094 0)"/>
     <use xlink:href="#DejaVuSans-74" transform="translate(773.050781 0)"/>
     <use xlink:href="#DejaVuSans-20" transform="translate(812.259766 0)"/>
     <use xlink:href="#DejaVuSans-6d" transform="translate(844.046875 0)"/>
     <use xlink:href="#DejaVuSans-65" transform="translate(941.458984 0)"/>
     <use xlink:href="#DejaVuSans-6d" transform="translate(1002.982422 0)"/>
     <use xlink:href="#DejaVuSans-6f" transform="translate(1100.394531 0)"/>
     <use xlink:href="#DejaVuSans-72" transform="translate(1161.576172 0)"/>
     <use xlink:href="#DejaVuSans-79" transform="translate(1202.689453 0)"/>
     <use xlink:href="#DejaVuSans-20" transform="translate(1261.869141 0)"/>
     <use xlink:href="#DejaVuSans-62" transform="translate(1293.65625 0)"/>
     <use xlink:href="#DejaVuSans-79" transform="translate(1357.132812 0)"/>
     <use xlink:href="#DejaVuSans-20" transform="translate(1416.3125 0)"/>
     <use xlink:href="#DejaVuSans-65" transform="translate(1448.099609 0)"/>
     <use xlink:href="#DejaVuSans-6e" transform="translate(1509.623047 0)"/>
     <use xlink:href="#DejaVuSans-61" transform="translate(1573.001953 0)"/>
     <use xlink:href="#DejaVuSans-62" transform="translate(1634.28125 0)"/>
     <use xlink:href="#DejaVuSans-6c" transform="translate(1697.757812 0)"/>
     <use xlink:href="#DejaVuSans-69" transform="translate(1725.541016 0)"/>
     <use xlink:href="#DejaVuSans-6e" transform="translate(1753.324219 0)"/>
     <use xlink:href="#DejaVuSans-67" transform="translate(1816.703125 0)"/>
     <use xlink:href="#DejaVuSans-20" transform="translate(1880.179688 0)"/>
     <use xlink:href="#DejaVuSans-70" transform="translate(1911.966797 0)"/>
     <use xlink:href="#DejaVuSans-72" transform="translate(1975.443359 0)"/>
     <use xlink:href="#DejaVuSans-6f" transform="translate(2014.306641 0)"/>
     <use xlink:href="#DejaVuSans-66" transform="translate(2075.488281 0)"/>
     <use xlink:href="#DejaVuSans-69" transform="translate(2110.693359 0)"/>
     <use xlink:href="#DejaVuSans-6c" transform="translate(2138.476562 0)"/>
     <use xlink:href="#DejaVuSans-65" transform="translate(2166.259766 0)"/>
     <use xlink:href="#DejaVuSans-73" transform="translate(2227.783203 0)"/>
    </g>
   </g>
   <g id="legend_1">
    <g id="patch_7">
     <path d="M 85.317 212.830753 
L 190.724812 212.830753 
Q 192.724812 212.830753 192.724812 210.830753 
L 192.724812 152.005753 
Q 192.724812 150.005753 190.724812 150.005753 
L 85.317 150.005753 
Q 83.317 150.005753 83.317 152.005753 
L 83.317 210.830753 
Q 83.317 212.830753 85.317 212.830753 
z
" style="fill: #ffffff; opacity: 0.8; stroke: #cccccc; stroke-linejoin: miter"/>
    </g>
    <g id="line2d_25">
     <path d="M 87.317 158.104191 
L 97.317 158.104191 
L 107.317 158.104191 
" style="fill: none; stroke: #1f77b4; stroke-width: 1.5; stroke-linecap: square"/>
     <g>
      <use xlink:href="#m81142390a0" x="97.317" y="158.104191" style="fill: #1f77b4; stroke: #1f77b4"/>
     </g>
    </g>
    <g id="text_17">
     <!-- tcp_profile -->
     <g transform="translate(115.317 161.604191) scale(0.1 -0.1)">
      <defs>
       <path id="DejaVuSans-5f" d="M 3263 -1063 
L 3263 -1509 
L -63 -1509 
L -63 -1063 
L 3263 -1063 
z
" transform="scale(0.015625)"/>
      </defs>
      <use xlink:href="#DejaVuSans-74"/>
      <use xlink:href="#DejaVuSans-63" transform="translate(39.208984 0)"/>
      <use xlink:href="#DejaVuSans-70" transform="translate(94.189453 0)"/>
      <use xlink:href="#DejaVuSans-5f" transform="translate(157.666016 0)"/>
      <use xlink:href="#DejaVuSans-70" transform="translate(207.666016 0)"/>
      <use xlink:href="#DejaVuSans-72" transform="translate(271.142578 0)"/>
      <use xlink:href="#DejaVuSans-6f" transform="translate(310.005859 0)"/>
      <use xlink:href="#DejaVuSans-66" transform="translate(371.1875 0)"/>
      <use xlink:href="#DejaVuSans-69" transform="translate(406.392578 0)"/>
      <use xlink:href="#DejaVuSans-6c" transform="translate(434.175781 0)"/>
      <use xlink:href="#DejaVuSans-65" transform="translate(461.958984 0)"/>
     </g>
    </g>
    <g id="line2d_26">
     <path d="M 87.317 173.060441 
L 97.317 173.060441 
L 107.317 173.060441 
" style="fill: none; stroke: #ff7f0e; stroke-width: 1.5; stroke-linecap: square"/>
     <g>
      <use xlink:href="#m66270814dc" x="97.317" y="173.060441" style="fill: #ff7f0e; stroke: #ff7f0e"/>
     </g>
    </g>
    <g id="text_18">
     <!-- udp_profile -->
     <g transform="translate(115.317 176.560441) scale(0.1 -0.1)">
      <defs>
       <path id="DejaVuSans-75" d="M 544 1381 
L 544 3500 
L 1119 3500 
L 1119 1403 
Q 1119 906 1312 657 
Q 1506 409 1894 409 
Q 2359 409 2629 706 
Q 2900 1003 2900 1516 
L 2900 3500 
L 3475 3500 
L 3475 0 
L 2900 0 
L 2900 538 
Q 2691 219 2414 64 
Q 2138 -91 1772 -91 
Q 1169 -91 856 284 
Q 544 659 544 1381 
z
M 1991 3584 
L 1991 3584 
z
" transform="scale(0.015625)"/>
       <path id="DejaVuSans-64" d="M 2906 2969 
L 2906 4863 
L 3481 4863 
L 3481 0 
L 2906 0 
L 2906 525 
Q 2725 213 2448 61 
Q 2172 -91 1784 -91 
Q 1150 -91 751 415 
Q 353 922 353 1747 
Q 353 2572 751 3078 
Q 1150 3584 1784 3584 
Q 2172 3584 2448 3432 
Q 2725 3281 2906 2969 
z
M 947 1747 
Q 947 1113 1208 752 
Q 1469 391 1925 391 
Q 2381 391 2643 752 
Q 2906 1113 2906 1747 
Q 2906 2381 2643 2742 
Q 2381 3103 1925 3103 
Q 1469 3103 1208 2742 
Q 947 2381 947 1747 
z
" transform="scale(0.015625)"/>
      </defs>
      <use xlink:href="#DejaVuSans-75"/>
      <use xlink:href="#DejaVuSans-64" transform="translate(63.378906 0)"/>
      <use xlink:href="#DejaVuSans-70" transform="translate(126.855469 0)"/>
      <use xlink:href="#DejaVuSans-5f" transform="translate(190.332031 0)"/>
      <use xlink:href="#DejaVuSans-70" transform="translate(240.332031 0)"/>
      <use xlink:href="#DejaVuSans-72" transform="translate(303.808594 0)"/>
      <use xlink:href="#DejaVuSans-6f" transform="translate(342.671875 0)"/>
      <use xlink:href="#DejaVuSans-66" transform="translate(403.853516 0)"/>
      <use xlink:href="#DejaVuSans-69" transform="translate(439.058594 0)"/>
      <use xlink:href="#DejaVuSans-6c" transform="translate(466.841797 0)"/>
      <use xlink:href="#DejaVuSans-65" transform="translate(494.625 0)"/>
     </g>
    </g>
    <g id="line2d_27">
     <path d="M 87.317 188.016691 
L 97.317 188.016691 
L 107.317 188.016691 
" style="fill: none; stroke: #2ca02c; stroke-width: 1.5; stroke-linecap: square"/>
     <g>
      <use xlink:href="#mf7137f5b79" x="97.317" y="188.016691" style="fill: #2ca02c; stroke: #2ca02c"/>
     </g>
    </g>
    <g id="text_19">
     <!-- serial_profile -->
     <g transform="translate(115.317 191.516691) scale(0.1 -0.1)">
      <use xlink:href="#DejaVuSans-73"/>
      <use xlink:href="#DejaVuSans-65" transform="translate(52.099609 0)"/>
      <use xlink:href="#DejaVuSans-72" transform="translate(113.623047 0)"/>
      <use xlink:href="#DejaVuSans-69" transform="translate(154.736328 0)"/>
      <use xlink:href="#DejaVuSans-61" transform="translate(182.519531 0)"/>
      <use xlink:href="#DejaVuSans-6c" transform="translate(243.798828 0)"/>
      <use xlink:href="#DejaVuSans-5f" transform="translate(271.582031 0)"/>
      <use xlink:href="#DejaVuSans-70" transform="translate(321.582031 0)"/>
      <use xlink:href="#DejaVuSans-72" transform="translate(385.058594 0)"/>
      <use xlink:href="#DejaVuSans-6f" transform="translate(423.921875 0)"/>
      <use xlink:href="#DejaVuSans-66" transform="translate(485.103516 0)"/>
      <use xlink:href="#DejaVuSans-69" transform="translate(520.308594 0)"/>
      <use xlink:href="#DejaVuSans-6c" transform="translate(548.091797 0)"/>
      <use xlink:href="#DejaVuSans-65" transform="translate(575.875 0)"/>
     </g>
    </g>
    <g id="line2d_28">
     <path d="M 87.317 202.972941 
L 97.317 202.972941 
L 107.317 202.972941 
" style="fill: none; stroke: #d62728; stroke-width: 1.5; stroke-linecap: square"/>
     <g>
      <use xlink:href="#m1daa34c10a" x="97.317" y="202.972941" style="fill: #d62728; stroke: #d62728"/>
     </g>
    </g>
    <g id="text_20">
     <!-- custom_profile -->
     <g transform="translate(115.317 206.472941) scale(0.1 -0.1)">
      <use xlink:href="#DejaVuSans-63"/>
      <use xlink:href="#DejaVuSans-75" transform="translate(54.980469 0)"/>
      <use xlink:href="#DejaVuSans-73" transform="translate(118.359375 0)"/>
      <use xlink:href="#DejaVuSans-74" transform="translate(170.458984 0)"/>
      <use xlink:href="#DejaVuSans-6f" transform="translate(209.667969 0)"/>
      <use xlink:href="#DejaVuSans-6d" transform="translate(270.849609 0)"/>
      <use xlink:href="#DejaVuSans-5f" transform="translate(368.261719 0)"/>
      <use xlink:href="#DejaVuSans-70" transform="translate(418.261719 0)"/>
      <use xlink:href="#DejaVuSans-72" transform="translate(481.738281 0)"/>
      <use xlink:href="#DejaVuSans-6f" transform="translate(520.601562 0)"/>
      <use xlink:href="#DejaVuSans-66" transform="translate(581.783203 0)"/>
      <use xlink:href="#DejaVuSans-69" transform="translate(616.988281 0)"/>
      <use xlink:href="#DejaVuSans-6c" transform="translate(644.771484 0)"/>
      <use xlink:href="#DejaVuSans-65" transform="translate(672.554688 0)"/>
     </g>
    </g>
   </g>
  </g>
 </g>
 <defs>
  <clipPath id="pf2555bada8">
   <rect x="78.317" y="26.88" width="371.683" height="190.950753"/>
  </clipPath>
 </defs>
</svg>
